<svg xmlns="http://www.w3.org/2000/svg" width="120" height="120" viewBox="0 0 120 120">
  <g id="engage" transform="translate(-128 -1275)">
    <path id="Path_14027" data-name="Path 14027" d="M60,0A60,60,0,1,1,0,60,60,60,0,0,1,60,0Z" transform="translate(128 1275)" fill="#ebe259" opacity="0.255"/>
    <g id="Group_14199" data-name="Group 14199" transform="translate(-601.544 741.838)">
      <g id="Group_14160" data-name="Group 14160" transform="translate(784.883 570.36)">
        <g id="Group_14159" data-name="Group 14159" transform="translate(0)">
          <g id="Group_14126" data-name="Group 14126" transform="translate(50.562 77.011)">
            <path id="Path_13961" data-name="Path 13961" d="M1208,965a3.848,3.848,0,0,0-1.278,1.335c-.575.989-3.172,1.636-3.567,1.848-.424.227-.916,1.156.831,1.215s3.675.472,4.657-.416c1.264-1.143,2.963-1.693,2.963-2.611s-1.259-2.335-1.259-2.335Z" transform="translate(-1202.75 -964.036)" fill="#292949"/>
          </g>
          <g id="Group_14127" data-name="Group 14127" transform="translate(25.166 78.633)">
            <path id="Path_13962" data-name="Path 13962" d="M1095.128,971.288a6.575,6.575,0,0,0-1.528,1.066c-.83.754-3.709.65-4.242,1.279,0,0-.734.663.788,1.109s4.739.263,6.033.35a9.251,9.251,0,0,0,2.686-.062,4.564,4.564,0,0,0-.291-2.285,5.613,5.613,0,0,0-.463-1.088Z" transform="translate(-1089.181 -971.288)" fill="#292949"/>
          </g>
          <g id="Group_14128" data-name="Group 14128" transform="translate(55.547 76.473)">
            <path id="Path_13963" data-name="Path 13963" d="M1225.045,962.651l.263.481a10.04,10.04,0,0,0,2.349-.964l-.263-.538Z" transform="translate(-1225.045 -961.629)" fill="#163342"/>
          </g>
          <g id="Group_14129" data-name="Group 14129" transform="translate(31.112 77.986)">
            <path id="Path_13964" data-name="Path 13964" d="M1115.909,968.4l-.135.646a6.359,6.359,0,0,0,2.984.369l.1-.61Z" transform="translate(-1115.774 -968.397)" fill="#163342"/>
          </g>
          <g id="Group_14130" data-name="Group 14130" transform="translate(16.859 14.678)">
            <path id="Path_13965" data-name="Path 13965" d="M1064.131,685.293s-3.614,7.691-4.3,7.844-7.612-.388-7.612-.388l-.185,1.773s9.823,2.631,10.355,1.864,4.541-8.442,4.541-8.442A2.834,2.834,0,0,0,1064.131,685.293Z" transform="translate(-1052.037 -685.293)" fill="#353a85"/>
          </g>
          <g id="Group_14131" data-name="Group 14131" transform="translate(6.568 27.922)">
            <path id="Path_13966" data-name="Path 13966" d="M1006.014,747.1a2.585,2.585,0,1,1,2.585,2.585A2.585,2.585,0,0,1,1006.014,747.1Z" transform="translate(-1006.014 -744.518)" fill="#d67086"/>
          </g>
          <g id="Group_14132" data-name="Group 14132" transform="translate(17.507 16.702)">
            <path id="Path_13967" data-name="Path 13967" d="M1054.934,696.925a2.585,2.585,0,1,1,2.584,2.585A2.584,2.584,0,0,1,1054.934,696.925Z" transform="translate(-1054.934 -694.34)" fill="#d67086"/>
          </g>
          <g id="Group_14133" data-name="Group 14133" transform="translate(0 10.134)">
            <path id="Path_13968" data-name="Path 13968" d="M978.57,671.538a2.585,2.585,0,1,1-1.926,4.308v7.429h18.3v-18.3H987.3a2.585,2.585,0,1,1-3,0h-7.65V672.4A2.578,2.578,0,0,1,978.57,671.538Z" transform="translate(-976.644 -664.97)" fill="#d67086"/>
          </g>
          <g id="Group_14134" data-name="Group 14134" transform="translate(15.345 23.763)">
            <path id="Path_13969" data-name="Path 13969" d="M1053.88,727.432a26.28,26.28,0,0,0-2.689-.409c-.85-.039-2.106-1.125-2.985-1.107s-2.942,1.265-2.942,1.663a1.079,1.079,0,0,0,.384.831,7.968,7.968,0,0,1,.74.83c.4.483,3.353.066,4.547.066s2.416-.037,2.416-.037Z" transform="translate(-1045.264 -725.917)" fill="#efbfa5"/>
          </g>
          <g id="Group_14135" data-name="Group 14135" transform="translate(30.29 31.274)">
            <path id="Path_13970" data-name="Path 13970" d="M1125.661,765.089s3.455,7.995,4.716,11c1.339,3.192,1.833,8.882,4.789,13.856,3.149,5.3,5.084,14.559,4.956,14.645s-3.239,1.494-3.5,1.234c-.908-.9-5.975-14.471-6.487-14.983s-1.75-3.789-2.629-5.144c-1.024-1.58-6.19-10.845-6.915-10.589s-1.322,10.417-1.876,11.994a14.907,14.907,0,0,0-.6,5.713c.046,2.194-1.54,14.2-1.54,14.2l-4.223-.483s.223-14.351.266-14.794a27.086,27.086,0,0,0,.022-3.773c0-.384-.848-12.561-.437-23.71S1125.661,765.089,1125.661,765.089Z" transform="translate(-1112.096 -759.504)" fill="#292949"/>
          </g>
          <g id="Group_14136" data-name="Group 14136" transform="translate(28.522 0.252)">
            <path id="Path_13971" data-name="Path 13971" d="M1104.845,622.359a8.467,8.467,0,0,0,.077,6.786c1.6,3.888,5.7,4,6.719-.849s.083-6.738-1.774-7.232S1105.832,620.56,1104.845,622.359Z" transform="translate(-1104.193 -620.78)" fill="#efbfa5"/>
          </g>
          <g id="Group_14137" data-name="Group 14137" transform="translate(27.928 11.895)">
            <path id="Path_13972" data-name="Path 13972" d="M1105.7,673.265s-2.811,1.452-3.166,2.418-1.357,5.8-.874,8.014,1.541,5.3,1.748,6.85c.217,1.625-.082,7.9.485,8.342,2.9,2.274,14.621,1.279,14.664.6s-1.466-3.884-1.85-6.906c-.154-1.212.3-4.135.312-9.033.016-4.819,1.219-7.917-1.759-9-2.771-1.009-4.978-1.7-4.978-1.7Z" transform="translate(-1101.533 -672.845)" fill="#353a85"/>
          </g>
          <g id="Group_14138" data-name="Group 14138" transform="translate(21.832 14.678)">
            <path id="Path_13973" data-name="Path 13973" d="M1095.57,689.174s-4.747,11.739-5.713,12.08-8.79-1.363-9.984-1.76-5.6-1.191-5.6-1.191.434-2.335.974-2.818c0,0,7.93.768,10.289,1.194s2.416-.852,3.7-3.809,2.416-6,2.558-6.2,1.136-2.1,2.956-1.08S1095.57,689.174,1095.57,689.174Z" transform="translate(-1074.274 -685.292)" fill="#353a85"/>
          </g>
          <g id="Group_14139" data-name="Group 14139" transform="translate(31.851 5.608)">
            <path id="Path_13974" data-name="Path 13974" d="M1119.324,648.807a6.357,6.357,0,0,1,0,2.631c-.341.944-.585,3.761,1.119,3.909s3.336-2.73,3.464-4.329a8.739,8.739,0,0,1-.879-5.435C1123.538,642.492,1119.324,648.807,1119.324,648.807Z" transform="translate(-1119.079 -644.731)" fill="#efbfa5"/>
          </g>
          <g id="Group_14140" data-name="Group 14140" transform="translate(29.077 17.042)">
            <path id="Path_13975" data-name="Path 13975" d="M1111.707,705.058q-.084,0-.173-.009c-.62-.063-4.819-.588-4.861-.594l.021-.169c.042.006,4.239.531,4.857.594.584.059,1.232-.148,2.017-2.045s2.843-6.919,2.863-6.97l.157.065c-.02.051-2.077,5.072-2.863,6.97a4.752,4.752,0,0,1-1.14,1.825A1.3,1.3,0,0,1,1111.707,705.058Z" transform="translate(-1106.672 -695.864)" fill="#353a85"/>
          </g>
          <g id="Group_14141" data-name="Group 14141" transform="translate(30.973 20.394)">
            <path id="Path_13976" data-name="Path 13976" d="M1121.06,721.225a38.7,38.7,0,0,1-5.91-.956l.039-.166c.051.012,5.127,1.187,6.386.911,1.024-.225,3.873-7.412,4.885-10.163l.16.059c-.009.025-.926,2.514-1.99,5.006-.625,1.465-1.178,2.644-1.643,3.506-.6,1.112-1.05,1.688-1.375,1.759A2.685,2.685,0,0,1,1121.06,721.225Z" transform="translate(-1115.15 -710.85)" fill="#353a85"/>
          </g>
          <g id="Group_14142" data-name="Group 14142" transform="translate(37.709 16.337)">
            <path id="Path_13977" data-name="Path 13977" d="M1145.274,696.18a10.626,10.626,0,0,1,.473-3.469l.156.068a10.684,10.684,0,0,0-.458,3.4Z" transform="translate(-1145.273 -692.711)" fill="#353a85"/>
          </g>
          <g id="Group_14143" data-name="Group 14143" transform="translate(33.919 39.824)">
            <path id="Path_13978" data-name="Path 13978" d="M1132.878,803.845c-.157-.138-3.861-3.409-4.554-6.063l.165-.043c.681,2.6,4.464,5.944,4.5,5.978Z" transform="translate(-1128.324 -797.739)" fill="#1f1f34"/>
          </g>
          <g id="Group_14144" data-name="Group 14144" transform="translate(34.072 42.078)">
            <path id="Path_13979" data-name="Path 13979" d="M1132.821,811.116a9.7,9.7,0,0,1-3.809-3.215l.149-.082c1.005,1.829,3.706,3.13,3.733,3.143Z" transform="translate(-1129.012 -807.819)" fill="#1f1f34"/>
          </g>
          <g id="Group_14145" data-name="Group 14145" transform="translate(32.496 9.216)">
            <path id="Path_13980" data-name="Path 13980" d="M1122.049,663.189h-.087l0-.128a2.783,2.783,0,0,0,2.316-1.07,3.752,3.752,0,0,0,.635-1.123l.122.038a3.792,3.792,0,0,1-.655,1.163A2.949,2.949,0,0,1,1122.049,663.189Z" transform="translate(-1121.962 -660.867)" fill="#c58c71"/>
          </g>
          <g id="Group_14146" data-name="Group 14146" transform="translate(28.18)">
            <path id="Path_13981" data-name="Path 13981" d="M1108.367,625.214l-.5.966h-.685s.744-1.472.356-1.792-2.82-.047-4.234-.6c0,0-.264.069-.272.2a3.145,3.145,0,0,1-.059-2.841c.729-1.369,5.187-2.132,6.551-.782,0,0,1.916.163,1.92,1.691a18.286,18.286,0,0,1-1.013,5.582s-.58-2.134-1.036-2.168A4.463,4.463,0,0,1,1108.367,625.214Z" transform="translate(-1102.66 -619.653)" fill="#292949"/>
          </g>
          <g id="Group_14147" data-name="Group 14147" transform="translate(33.766 4.133)">
            <path id="Path_13982" data-name="Path 13982" d="M1127.762,639.563c.071-.37.539-2.076,1.506-1.163s-.56,2.758-1.013,2.783C1127.88,641.2,1127.419,641.342,1127.762,639.563Z" transform="translate(-1127.642 -638.135)" fill="#efbfa5"/>
          </g>
          <g id="Group_14148" data-name="Group 14148" transform="translate(28.148 17.935)">
            <path id="Path_13983" data-name="Path 13983" d="M1102.79,705.418c-.008-.032-.783-3.236.312-5.56l.154.073c-1.069,2.269-.309,5.414-.3,5.446Z" transform="translate(-1102.516 -699.858)" fill="#353a85"/>
          </g>
          <g id="Group_14149" data-name="Group 14149" transform="translate(25.4 81.41)">
            <path id="Path_13984" data-name="Path 13984" d="M1099.442,984.545c-.033,0-3.325-.117-5.55-.075a8.818,8.818,0,0,1-3.664-.646l.056-.115a8.689,8.689,0,0,0,3.605.633c2.229-.043,5.524.073,5.557.075Z" transform="translate(-1090.229 -983.709)" fill="#1b1d1f"/>
          </g>
          <g id="Group_14150" data-name="Group 14150" transform="translate(50.929 79.54)">
            <path id="Path_13985" data-name="Path 13985" d="M1207.618,977.992a29.211,29.211,0,0,1-3.227-.24l.016-.127c.041.005,4.074.53,4.741.013.309-.24.95-.678,1.569-1.1.733-.5,1.563-1.07,1.66-1.189l.1.081a17.7,17.7,0,0,1-1.687,1.214c-.618.423-1.257.861-1.563,1.1A3.269,3.269,0,0,1,1207.618,977.992Z" transform="translate(-1204.391 -975.346)" fill="#1b1d1f"/>
          </g>
          <g id="Group_14151" data-name="Group 14151" transform="translate(30.433 79.236)">
            <rect id="Rectangle_115" data-name="Rectangle 115" width="0.128" height="1.37" transform="matrix(0.622, -0.783, 0.783, 0.622, 0, 0.1)" fill="#1b1d1f"/>
          </g>
          <g id="Group_14152" data-name="Group 14152" transform="translate(30.157 79.534)">
            <rect id="Rectangle_116" data-name="Rectangle 116" width="0.128" height="1.124" transform="translate(0 0.1) rotate(-51.53)" fill="#1b1d1f"/>
          </g>
          <g id="Group_14153" data-name="Group 14153" transform="translate(29.868 79.848)">
            <path id="Path_13986" data-name="Path 13986" d="M1110.861,977.337l-.649-.516.08-.1.649.515Z" transform="translate(-1110.212 -976.722)" fill="#1b1d1f"/>
          </g>
          <g id="Group_14157" data-name="Group 14157" transform="translate(54.841 78.51)">
            <g id="Group_14154" data-name="Group 14154" transform="translate(0.496 0)">
              <rect id="Rectangle_117" data-name="Rectangle 117" width="0.128" height="1.37" transform="matrix(0.535, -0.845, 0.845, 0.535, 0, 0.108)" fill="#1b1d1f"/>
            </g>
            <g id="Group_14155" data-name="Group 14155" transform="translate(0.254 0.325)">
              <path id="Path_13987" data-name="Path 13987" d="M1223.969,972.9l-.949-.6.068-.108.95.6Z" transform="translate(-1223.02 -972.194)" fill="#1b1d1f"/>
            </g>
            <g id="Group_14156" data-name="Group 14156" transform="translate(0 0.668)">
              <rect id="Rectangle_118" data-name="Rectangle 118" width="0.128" height="0.829" transform="matrix(0.535, -0.845, 0.845, 0.535, 0, 0.108)" fill="#1b1d1f"/>
            </g>
          </g>
          <g id="Group_14158" data-name="Group 14158" transform="translate(23.355 24.839)">
            <path id="Path_13988" data-name="Path 13988" d="M1084.431,731.245l-3.345-.344.017-.17,3.345.344Z" transform="translate(-1081.086 -730.731)" fill="#353a85"/>
          </g>
        </g>
      </g>
      <g id="Group_14162" data-name="Group 14162" transform="translate(791.309 560.803)">
        <g id="Group_14161" data-name="Group 14161">
          <rect id="Rectangle_119" data-name="Rectangle 119" width="17.55" height="11.601" rx="5.8" fill="#8cabef"/>
          <path id="Path_13989" data-name="Path 13989" d="M1053.908,620.8c.379,1.091,3.446,2.826,5.7,2.38-1.228-1.32-2.042-1.835-1.374-3.173.948-1.9-5.008-1.051-5.008-1.051Z" transform="translate(-1042.526 -609.406)" fill="#8cabef"/>
        </g>
        <path id="Path_13990" data-name="Path 13990" d="M1027.459,592.889h-11.38a.9.9,0,0,1-.892-.892h0a.9.9,0,0,1,.892-.893h11.38a.9.9,0,0,1,.892.893h0A.9.9,0,0,1,1027.459,592.889Z" transform="translate(-1012.994 -587.931)" fill="#8cabef"/>
        <path id="Path_13991" data-name="Path 13991" d="M1022.365,605.526h-6.286a.9.9,0,0,1-.892-.892h0a.9.9,0,0,1,.892-.892h6.286a.9.9,0,0,1,.892.892h0A.9.9,0,0,1,1022.365,605.526Z" transform="translate(-1012.994 -597.742)" fill="#8cabef"/>
      </g>
      <g id="Group_14164" data-name="Group 14164" transform="translate(759.873 556.162)">
        <g id="Group_14163" data-name="Group 14163" transform="translate(0 0)">
          <rect id="Rectangle_120" data-name="Rectangle 120" width="17.55" height="11.6" rx="5.8" transform="translate(17.55 11.6) rotate(180)" fill="#8cabef"/>
          <path id="Path_13992" data-name="Path 13992" d="M872.6,600.043c-.379,1.091-3.446,2.826-5.7,2.38,1.228-1.32,2.042-1.835,1.374-3.173-.949-1.9,5.007-1.052,5.007-1.052Z" transform="translate(-866.434 -588.652)" fill="#8cabef"/>
        </g>
        <path id="Path_13993" data-name="Path 13993" d="M875.5,572.135h11.38a.9.9,0,0,0,.892-.892h0a.9.9,0,0,0-.892-.892H875.5a.9.9,0,0,0-.892.892h0A.9.9,0,0,0,875.5,572.135Z" transform="translate(-872.414 -567.178)" fill="#8cabef"/>
        <path id="Path_13994" data-name="Path 13994" d="M876.11,584.772H882.4a.9.9,0,0,0,.892-.892h0a.9.9,0,0,0-.892-.893H876.11a.9.9,0,0,0-.892.893h0A.9.9,0,0,0,876.11,584.772Z" transform="translate(-872.889 -576.988)" fill="#8cabef"/>
      </g>
      <g id="Group_14191" data-name="Group 14191" transform="translate(729.65 571.569)">
        <g id="Group_14165" data-name="Group 14165" transform="translate(0 74.146)">
          <path id="Path_13995" data-name="Path 13995" d="M732.52,957.232a4.384,4.384,0,0,1,1.447,1.591c.33.848,2.651,1.49,3,1.443s.683,1.342-.706,1.389-3.269.188-4.05-.518c-1-.909-2.564-1.916-2.564-2.645s1.325-1.857,1.325-1.857Z" transform="translate(-729.65 -956.636)" fill="#292949"/>
        </g>
        <g id="Group_14166" data-name="Group 14166" transform="translate(29.854 75.057)">
          <path id="Path_13996" data-name="Path 13996" d="M866,960.729a11.441,11.441,0,0,1,1.278,1.526c.479.732,3.169.508,3.5,1.121a.865.865,0,0,1-.5,1.394c-1.189.347-4.585-.18-5.595-.112-.346.023-1.4.029-1.505-.145a8.106,8.106,0,0,1,.435-2.455,9.235,9.235,0,0,1,.634-1.349Z" transform="translate(-863.154 -960.709)" fill="#292949"/>
        </g>
        <g id="Group_14167" data-name="Group 14167" transform="translate(1.325 73.724)">
          <path id="Path_13997" data-name="Path 13997" d="M737.345,955.389l-.225.376a4.9,4.9,0,0,1-1.545-.6l.106-.422Z" transform="translate(-735.575 -954.747)" fill="#ffd880"/>
        </g>
        <g id="Group_14168" data-name="Group 14168" transform="translate(30.938 74.572)">
          <path id="Path_13998" data-name="Path 13998" d="M869.736,958.539l.026.505a1.9,1.9,0,0,1-1.759-.02l.033-.3Z" transform="translate(-868.003 -958.539)" fill="#ffd880"/>
        </g>
        <g id="Group_14169" data-name="Group 14169" transform="translate(26.926 14.086)">
          <path id="Path_13999" data-name="Path 13999" d="M851.456,688.051s5.53,6.654,6.163,6.671,6.707-1.676,6.707-1.676l.474,1.545s-8.28,4.059-8.888,3.469-5.516-6.717-5.516-6.717S849.152,688.493,851.456,688.051Z" transform="translate(-850.061 -688.051)" fill="#d67086"/>
        </g>
        <g id="Group_14170" data-name="Group 14170" transform="translate(42.801 3.062)">
          <path id="Path_14000" data-name="Path 14000" d="M921.1,641.552a2.344,2.344,0,1,0,1.848-2.752A2.344,2.344,0,0,0,921.1,641.552Z" transform="translate(-921.051 -638.755)" fill="#353a85"/>
        </g>
        <g id="Group_14171" data-name="Group 14171" transform="translate(54.497 11.134)">
          <path id="Path_14001" data-name="Path 14001" d="M973.4,677.647a2.344,2.344,0,1,0,1.848-2.752A2.344,2.344,0,0,0,973.4,677.647Z" transform="translate(-973.354 -674.851)" fill="#353a85"/>
        </g>
        <g id="Group_14172" data-name="Group 14172" transform="translate(37.363 5.647)">
          <path id="Path_14002" data-name="Path 14002" d="M900.5,663.622a2.344,2.344,0,1,0-2.467-3.5l-1.3-6.61,16.288-3.2,3.2,16.288-6.807,1.338a2.344,2.344,0,1,0-2.674.525l-6.807,1.338-1.3-6.61A2.336,2.336,0,0,0,900.5,663.622Z" transform="translate(-896.734 -650.314)" fill="#353a85"/>
        </g>
        <g id="Group_14173" data-name="Group 14173" transform="translate(34.926 21.131)">
          <path id="Path_14003" data-name="Path 14003" d="M885.835,721.644a23.8,23.8,0,0,1,2.322-.834c.75-.184,1.6-1.094,2.385-1.231s3.345.446,3.414.8-.027.265-.171.466a6.716,6.716,0,0,0-.966,1.1c-.27.5-2.917.258-3.98.467a10.475,10.475,0,0,0-2.212.776Z" transform="translate(-885.835 -719.559)" fill="#eea886"/>
        </g>
        <g id="Group_14174" data-name="Group 14174" transform="translate(1.309 33.86)">
          <path id="Path_14004" data-name="Path 14004" d="M751.682,782.309s-2.729,3.054-6.34,14.343c-.9,2.816-3.634,4.1-5.915,9.2a74.1,74.1,0,0,0-3.918,10.492c.116.078,1.741.874,1.979.638.823-.817,9.118-14.506,9.582-14.97s2.125-1.985,3.052-3.119c.9-1.1,8.249-11.212,8.907-10.98s2.353,9.86,2.855,11.291a11.7,11.7,0,0,1,.6,5.334c-.27,1.972,2.376,12.883,2.376,12.883l2.281-.261s-.2-13.014-.242-13.415a24.553,24.553,0,0,1-.019-3.422,76.151,76.151,0,0,0,.717-18.016C766.539,769.2,751.682,782.309,751.682,782.309Z" transform="translate(-735.503 -776.482)" fill="#292949"/>
        </g>
        <g id="Group_14175" data-name="Group 14175" transform="translate(18.064 0)">
          <path id="Path_14005" data-name="Path 14005" d="M820.2,630.684s.136-3.888-2.65-5.232-7.683.906-7.066,4.843,1.9,5.738,1.288,7.758a44.544,44.544,0,0,0-1.023,4.417L819.7,639.1s-1.963-3.489-.564-5.878C820.284,631.253,820.2,630.684,820.2,630.684Z" transform="translate(-810.429 -625.062)" fill="#292949"/>
        </g>
        <g id="Group_14176" data-name="Group 14176" transform="translate(20.709 1.31)">
          <path id="Path_14006" data-name="Path 14006" d="M827.869,631.922a7.8,7.8,0,0,1,1.263,5.974c-.692,3.494-4.09,4.257-5.726.392s-1.427-6.111.037-6.824S826.754,630.587,827.869,631.922Z" transform="translate(-822.26 -630.92)" fill="#eea886"/>
        </g>
        <g id="Group_14177" data-name="Group 14177" transform="translate(16.153 12.974)">
          <path id="Path_14007" data-name="Path 14007" d="M815.869,699.218c.172,1.411,3.221,7.31,2.794,7.8-2.182,2.531-15.668,3.881-15.825,3.281s1.446-6.076,1.791-7.129a14.592,14.592,0,0,0-1.092-8.966c-1.806-3.979-2.488-6.445-.2-8.235a17.33,17.33,0,0,1,3.6-2.177h0c.451-.2.72-.288.72-.288l4.151-.428a6.408,6.408,0,0,1,.662.165,2.91,2.91,0,0,1,1.58.946c.485.8,3.435,5.751,3.393,7.808S815.7,697.807,815.869,699.218Z" transform="translate(-801.884 -683.08)" fill="#d67086"/>
        </g>
        <g id="Group_14178" data-name="Group 14178" transform="translate(21.209 12.974)">
          <path id="Path_14008" data-name="Path 14008" d="M829.728,688.344c-2.433.148-5.237-4.547-5.237-4.547h0c.452-.2.72-.288.72-.288l4.151-.428a6.4,6.4,0,0,1,.662.165C831.227,687.766,829.728,688.344,829.728,688.344Z" transform="translate(-824.492 -683.08)" fill="#cb687d"/>
        </g>
        <g id="Group_14179" data-name="Group 14179" transform="translate(16.154 16.795)">
          <path id="Path_14009" data-name="Path 14009" d="M802.431,703.964s6.276,9.615,7.2,9.75,7.461-3.2,8.454-3.763,4.647-2.016,4.647-2.016-.546-1.574-1.111-1.909c0,0-6.921,2.069-8.946,2.861s-2.3-.336-3.954-2.743-3.2-4.914-3.36-5.066a1.954,1.954,0,0,0-2.819-.444C801.143,701.778,802.431,703.964,802.431,703.964Z" transform="translate(-801.889 -700.169)" fill="#d67086"/>
        </g>
        <g id="Group_14180" data-name="Group 14180" transform="translate(21.626 7.618)">
          <path id="Path_14010" data-name="Path 14010" d="M830.353,662.145a5.754,5.754,0,0,0,.46,2.341c.469.78.563,4.268-.021,4.4s-3.737-2.575-4.13-3.976a7.923,7.923,0,0,0-.168-4.99C825.5,657.263,830.353,662.145,830.353,662.145Z" transform="translate(-826.359 -659.13)" fill="#eea886"/>
        </g>
        <g id="Group_14181" data-name="Group 14181" transform="translate(20.416 1.006)">
          <path id="Path_14011" data-name="Path 14011" d="M828.366,634.176s-1.055-1.546-1.855-1.6a16.322,16.322,0,0,1-3.125,3.133c-1.142.6-.828,2.963-.828,2.963s-4.235-7.777,1.033-9C823.592,629.677,827.572,628.417,828.366,634.176Z" transform="translate(-820.949 -629.56)" fill="#292949"/>
        </g>
        <g id="Group_14182" data-name="Group 14182" transform="translate(20.121 18.489)">
          <path id="Path_14012" data-name="Path 14012" d="M825.567,715.1a1.182,1.182,0,0,1-.841-.143,4.312,4.312,0,0,1-1.333-1.425c-1.031-1.552-3.74-5.66-3.767-5.7l.129-.085c.027.041,2.735,4.15,3.767,5.7s1.643,1.621,2.153,1.467c.539-.163,4.182-1.365,4.218-1.377l.049.147c-.037.012-3.682,1.214-4.222,1.378C825.668,715.075,825.618,715.088,825.567,715.1Z" transform="translate(-819.627 -707.743)" fill="#d67086"/>
        </g>
        <g id="Group_14183" data-name="Group 14183" transform="translate(17.638 22.074)">
          <path id="Path_14013" data-name="Path 14013" d="M815.162,732.074a1.873,1.873,0,0,1-.387.041c-.3-.007-.8-.44-1.531-1.325-.565-.685-1.263-1.638-2.075-2.832-1.382-2.031-2.633-4.085-2.646-4.106l.132-.081c1.381,2.271,5.174,8.167,6.124,8.189,1.167.026,5.315-2.165,5.357-2.187l.072.137A28.864,28.864,0,0,1,815.162,732.074Z" transform="translate(-808.523 -723.772)" fill="#d67086"/>
        </g>
        <g id="Group_14184" data-name="Group 14184" transform="translate(30.53 18.239)">
          <path id="Path_14014" data-name="Path 14014" d="M867.427,710.493l-.154-.017c.145-1.324-1.086-3.757-1.1-3.782l.138-.07C866.364,706.725,867.577,709.123,867.427,710.493Z" transform="translate(-866.175 -706.624)" fill="#d67086"/>
        </g>
        <g id="Group_14185" data-name="Group 14185" transform="translate(20.58 17.748)">
          <path id="Path_14015" data-name="Path 14015" d="M822.837,707.431l-.152.027a9.689,9.689,0,0,0-1-2.943l.127-.088A9.619,9.619,0,0,1,822.837,707.431Z" transform="translate(-821.683 -704.427)" fill="#d67086"/>
        </g>
        <g id="Group_14186" data-name="Group 14186" transform="translate(20.332 30.017)">
          <path id="Path_14016" data-name="Path 14016" d="M820.669,765.068l-.095-.122a67.866,67.866,0,0,1,8.695-5.654l.072.137A67.753,67.753,0,0,0,820.669,765.068Z" transform="translate(-820.574 -759.292)" fill="#d67086"/>
        </g>
        <g id="Group_14187" data-name="Group 14187" transform="translate(25.31 41.013)">
          <path id="Path_14017" data-name="Path 14017" d="M842.886,812.3l-.053-.1c.036-.018,3.63-1.869,4.654-3.726l.1.056C846.547,810.41,843.035,812.22,842.886,812.3Z" transform="translate(-842.833 -808.466)" fill="#1b1d1f"/>
        </g>
        <g id="Group_14188" data-name="Group 14188" transform="translate(25.909 42.702)">
          <path id="Path_14018" data-name="Path 14018" d="M845.538,817.847l-.024-.114a7.957,7.957,0,0,0,3.521-1.712l.085.079A8.076,8.076,0,0,1,845.538,817.847Z" transform="translate(-845.514 -816.022)" fill="#1b1d1f"/>
        </g>
        <g id="Group_14189" data-name="Group 14189" transform="translate(22.427 9.795)">
          <path id="Path_14019" data-name="Path 14019" d="M832.8,670.333a2.5,2.5,0,0,1-2.128-.552,3.22,3.22,0,0,1-.736-.861l.1-.055a3.175,3.175,0,0,0,.711.829,2.358,2.358,0,0,0,2.1.51l.025.113Z" transform="translate(-829.94 -668.865)" fill="#c58c71"/>
        </g>
        <g id="Group_14190" data-name="Group 14190" transform="translate(35.073 22.651)">
          <path id="Path_14020" data-name="Path 14020" d="M887.3,726.353s.557.263,1.111,1.909a2.925,2.925,0,0,1-.786.317,5.41,5.41,0,0,0-1.133-1.983A4.763,4.763,0,0,1,887.3,726.353Z" transform="translate(-886.494 -726.353)" fill="#cb687d"/>
        </g>
      </g>
      <g id="Group_14195" data-name="Group 14195" transform="translate(767.432 606.242)">
        <g id="Group_14192" data-name="Group 14192" transform="translate(0 11.675)">
          <path id="Path_14021" data-name="Path 14021" d="M901.367,837.84a2.759,2.759,0,1,0-2.759-2.759A2.758,2.758,0,0,0,901.367,837.84Z" transform="translate(-898.608 -832.322)" fill="#5d66d3"/>
        </g>
        <g id="Group_14193" data-name="Group 14193" transform="translate(11.976)">
          <path id="Path_14022" data-name="Path 14022" d="M954.922,785.63a2.759,2.759,0,1,0-2.758-2.759A2.759,2.759,0,0,0,954.922,785.63Z" transform="translate(-952.164 -780.113)" fill="#5d66d3"/>
        </g>
        <g id="Group_14194" data-name="Group 14194" transform="translate(4.967 4.666)">
          <path id="Path_14023" data-name="Path 14023" d="M933.345,818.459a2.759,2.759,0,1,0-4.6,2.056h-7.928V800.978h19.536v8.164a2.759,2.759,0,1,0,0,3.207v8.165h-7.929A2.751,2.751,0,0,0,933.345,818.459Z" transform="translate(-920.818 -800.978)" fill="#5d66d3"/>
        </g>
      </g>
      <g id="Group_14198" data-name="Group 14198" transform="translate(786.822 610.908)">
        <g id="Group_14196" data-name="Group 14196" transform="translate(7.009 18.998)">
          <path id="Path_14024" data-name="Path 14024" d="M1022.178,888.692a2.759,2.759,0,1,0-2.759,2.759A2.758,2.758,0,0,0,1022.178,888.692Z" transform="translate(-1016.66 -885.933)" fill="#5d66d3"/>
        </g>
        <g id="Group_14197" data-name="Group 14197">
          <path id="Path_14025" data-name="Path 14025" d="M1002.8,807.988a2.759,2.759,0,1,0,2.055,4.6v7.928H985.317V800.978h8.164a2.759,2.759,0,1,0,3.207,0h8.165v7.929A2.75,2.75,0,0,0,1002.8,807.988Z" transform="translate(-985.317 -800.978)" fill="#5d66d3"/>
        </g>
      </g>
    </g>
  </g>
</svg>
