<svg xmlns="http://www.w3.org/2000/svg" width="120" height="120" viewBox="0 0 120 120">
  <g id="enjoy" transform="translate(-128 -1275)">
    <path id="Path_14027" data-name="Path 14027" d="M60,0A59.85,59.85,0,1,1,0,59.85,59.925,59.925,0,0,1,60,0Z" transform="translate(128 1275)" fill="#ebe259" opacity="0.255"/>
    <g id="Group_14268" data-name="Group 14268" transform="translate(134 1295.948)">
      <g id="Group_14223" data-name="Group 14223" transform="translate(63.014 0)">
        <g id="Group_14218" data-name="Group 14218" transform="translate(10.294 9.254)">
          <g id="Group_14214" data-name="Group 14214" transform="translate(0 46.208)">
            <g id="Group_14211" data-name="Group 14211" transform="translate(16.286 20.411)">
              <g id="Group_14210" data-name="Group 14210" transform="translate(0.057)">
                <path id="Path_14099" data-name="Path 14099" d="M535.572,615.378l.126,7.655c-.051,2.124.14,4.241.269,6.358.12,1.966-.276,3.993.657,5.815.292.571.915.969,1.389.309.365-.509.2-1.389.287-1.979.678-4.438,1.939-8.765,2.568-13.211C541.527,615.668,539.725,615.791,535.572,615.378Z" transform="translate(-535.572 -615.378)" fill="#eac5b0"/>
              </g>
              <path id="Path_14100" data-name="Path 14100" d="M535.768,710.008l-.492,1.277,2.422,2.132,2.218.091.718-1.17-2.984-2.594Z" transform="translate(-535.276 -691.488)" fill="#292949"/>
            </g>
            <g id="Group_14213" data-name="Group 14213" transform="translate(4.428 20.032)">
              <g id="Group_14212" data-name="Group 14212" transform="translate(0.298)">
                <path id="Path_14101" data-name="Path 14101" d="M481.712,613.875l-1.4,7.528c-.484,3.367-1.584,6.647-2.068,10.014a8.775,8.775,0,0,1-.379,2.352c-.317.715-.936.743-1.483.258-.733-.65-.395-1.81-.381-2.7.09-5.91-.375-11.736-.487-17.655a.264.264,0,0,1,.062-.216.255.255,0,0,1,.181-.035C476.335,613.462,481.682,614.037,481.712,613.875Z" transform="translate(-475.517 -613.422)" fill="#eac5b0"/>
              </g>
              <path id="Path_14102" data-name="Path 14102" d="M474.747,712.737l-.768,1.133,1.878,2.623,2.141.59.963-.978-2.321-3.2Z" transform="translate(-473.979 -693.525)" fill="#292949"/>
            </g>
            <path id="Path_14103" data-name="Path 14103" d="M475.32,535.148,474.276,524.2l-.5-7.111-1.693-5.808-9.144-1.419-11.3,1.938-.543,2.2,2.176,20.33,10.9.817-.148-12.653,1.682,7.843-.071,4.81Z" transform="translate(-451.087 -509.867)" fill="#292949"/>
          </g>
          <path id="Path_14104" data-name="Path 14104" d="M466.06,355.246c-.015.37-.026.739-.032,1.107-.132,7.507.281,15.109.329,22.678a84.024,84.024,0,0,1,11.719-1c.908-.014,5.037.624,5.612.082.78-.736-.078-.6-.021-1.556.074-1.24-.522-2.256-.3-3.726.264-1.727.791-3.436,1.094-5.163a75.4,75.4,0,0,0,1.093-10.482c.105-3.117-.008-6.349-1.348-9.165-3.305-6.944-13.961-6.819-16.885.431A20.336,20.336,0,0,0,466.06,355.246Z" transform="translate(-463.117 -329.002)" fill="#fff"/>
          <g id="Group_14217" data-name="Group 14217" transform="translate(6.406)">
            <g id="Group_14216" data-name="Group 14216">
              <path id="Path_14105" data-name="Path 14105" d="M521.926,284.139a5.836,5.836,0,0,1,.716,2.637.837.837,0,0,0,.225.67c.211.154.026.493.186.286a4.5,4.5,0,0,0,.731-1.184,9.646,9.646,0,0,0,0-1.837,2.634,2.634,0,0,0-.507-1.49,2.983,2.983,0,0,0-.751-.572,3.838,3.838,0,0,0-1.247-.56c-.777-.145-1.253.134-.568.676A4.739,4.739,0,0,1,521.926,284.139Z" transform="translate(-513.379 -279.914)" fill="#292949"/>
              <g id="Group_14215" data-name="Group 14215" transform="translate(0.901 2.307)">
                <path id="Path_14106" data-name="Path 14106" d="M491.651,295.265c.005.376-.072.766.26,1.057a1.137,1.137,0,0,0,.585.23,3.626,3.626,0,0,0,1.628-.115,1.462,1.462,0,0,0,.593-.313.742.742,0,0,0,.211-.6c.011-.283.068-.571.105-.859.081-.629.118-1.262.136-1.9.931-.16,2.026-.461,2.344-1.436a3.207,3.207,0,0,0,.106-.968q.015-2.027.03-4.053a3.911,3.911,0,0,0-.156-1.382,2.811,2.811,0,0,0-1.694-1.5,6.081,6.081,0,0,0-5.514.337,3.009,3.009,0,0,0-1.105,1.111,4.726,4.726,0,0,0-.28,2.515q.084,1.186.168,2.371a3.131,3.131,0,0,0,.906,2.436c.375.255.859.3,1.182.632.564.576.3,1.436.462,2.134A1.371,1.371,0,0,1,491.651,295.265Z" transform="translate(-488.86 -282.929)" fill="#eac5b0"/>
              </g>
              <path id="Path_14107" data-name="Path 14107" d="M497.945,315.777c-.015-.25-.124-.984-.5-.523a.755.755,0,0,0-.129.452,1.7,1.7,0,0,1-.049.477.841.841,0,0,1-.842.5.82.82,0,0,1-.4-.093,1.225,1.225,0,0,1-.3-.276l-.659-.756c-.378-.433-1.126-.246-1.635-.18a3.26,3.26,0,0,0-1.652.639c-.048.039-.1.08-.143.121a1.757,1.757,0,0,1-.366.264,1.129,1.129,0,0,1-1.331-.422c-.146-.189-.281-.432-.507-.464a.464.464,0,0,0-.439.267,1.322,1.322,0,0,0-.127.554,4.073,4.073,0,0,0,.354,2.036c.656,1.342,1.924,1.507,3.2,1.477l1.511-.036a4.781,4.781,0,0,0,2.67-.6,3.307,3.307,0,0,0,1.258-2.116A5.216,5.216,0,0,0,497.945,315.777Zm-3.369,1.9a1.763,1.763,0,0,1-1.56.181c-.23-.069-.132-.455.1-.386a1.418,1.418,0,0,0,1.275-.14C494.592,317.2,494.778,317.543,494.576,317.679Z" transform="translate(-487.958 -306.573)" fill="#292949"/>
              <path id="Path_14108" data-name="Path 14108" d="M494.383,272.886a7.25,7.25,0,0,0,.2-1,1.977,1.977,0,0,1-.977.084q0-.291,0-.583a11.311,11.311,0,0,0-2.365-.289c-1.663-.136-3.183-.266-4.687.626a4.527,4.527,0,0,0-2.3,3.382,6.923,6.923,0,0,0,1.094,4.439,9.633,9.633,0,0,1-.133-1.624,3.2,3.2,0,0,1,.349-1.024,4.224,4.224,0,0,1,1.482-1.558,8.21,8.21,0,0,1,3.239-1.091,8.868,8.868,0,0,1,3.325,0c.492.132.574.256.872-.241a8.43,8.43,0,0,0,.429-1.111Z" transform="translate(-484.202 -271.003)" fill="#292949"/>
            </g>
          </g>
        </g>
        <g id="Group_14219" data-name="Group 14219" transform="translate(0 0.951)">
          <path id="Path_14109" data-name="Path 14109" d="M404.88,228.98a.63.63,0,0,1,.078.161c.138.526-.1.882-.116,1.424-.005.241.51.59.081.855-.158.1-.581.284-.92.489a3.565,3.565,0,0,0-1.2,1.584,17.929,17.929,0,0,0-1.011,3.388,11.678,11.678,0,0,0-.514,3.649c.167.941,1.42,2.121,1.982,2.922q1.062,1.513,2.079,3.057a7.351,7.351,0,0,1,1.151,2.318,1.814,1.814,0,0,1-.206,1.51,2.348,2.348,0,0,1-.819.59,3.023,3.023,0,0,1-1.7.488,2.928,2.928,0,0,1-1.75-1.264,24.434,24.434,0,0,1-2.785-4.143c-.54-1.048-1.558-2.9-1.319-4.094a76.59,76.59,0,0,1,2.168-8.042c.231-.73.816-1.247,1.024-1.924.132-.432-.075-.866-.04-1.3a4.215,4.215,0,0,1,.38-1.375c.376-.764,1.242-.918,1.985-1.128a.913.913,0,0,1,.486-.05,1.32,1.32,0,0,1,.662.486A2.558,2.558,0,0,1,404.88,228.98Z" transform="translate(-397.876 -228.08)" fill="#eac5b0"/>
        </g>
        <g id="Group_14222" data-name="Group 14222" transform="translate(3.05)">
          <g id="Group_14220" data-name="Group 14220" transform="translate(32.036)">
            <path id="Path_14110" data-name="Path 14110" d="M580.93,224.063a.636.636,0,0,0-.078.162c-.138.526.1.882.116,1.424.005.242-.51.59-.081.855.158.1.581.284.92.489a3.564,3.564,0,0,1,1.2,1.584,17.948,17.948,0,0,1,1.011,3.388,11.677,11.677,0,0,1,.514,3.649c-.168.941-1.42,2.121-1.982,2.922q-1.062,1.513-2.079,3.057a7.353,7.353,0,0,0-1.151,2.318,1.814,1.814,0,0,0,.206,1.511,2.349,2.349,0,0,0,.819.59,3.023,3.023,0,0,0,1.7.489,2.931,2.931,0,0,0,1.75-1.264,24.445,24.445,0,0,0,2.785-4.143c.541-1.048,1.558-2.9,1.319-4.094a76.53,76.53,0,0,0-2.168-8.042c-.231-.73-.817-1.247-1.024-1.924-.132-.432.075-.867.04-1.3a4.213,4.213,0,0,0-.38-1.375c-.376-.764-1.242-.919-1.985-1.128a.915.915,0,0,0-.486-.05,1.322,1.322,0,0,0-.662.486A2.563,2.563,0,0,0,580.93,224.063Z" transform="translate(-579.245 -223.163)" fill="#eac5b0"/>
          </g>
          <g id="Group_14221" data-name="Group 14221" transform="translate(0 17.151)">
            <path id="Path_14111" data-name="Path 14111" d="M431.445,322.646l-.076-.949c-1.1.256-2.453.379-3.632.681-1.511-.529-3.2-.562-4.592-1.363a9.309,9.309,0,0,1-2.422-2.336c-.9-1.114-1.317-2.283-2.642-1.842-.989.329-2.3,2.091-3.088,2.8l-1.148,1.039a.521.521,0,0,0-.2.292.511.511,0,0,0,.055.255,17.852,17.852,0,0,0,4.675,6.731,18.946,18.946,0,0,1,3.236,3.64c-.476,3.412,0,7.055,0,10.448,0,1.4-.944,16.393-.226,16.429a55.282,55.282,0,0,0,7.59-.522c1.135-.1,2.468.147,2.72-1.119a18.276,18.276,0,0,0,.083-2.91l.283-9.956c.025-.873.331-13.8.392-13.8l-2.894-5.274Z" transform="translate(-413.642 -315.79)" fill="#5d66d3"/>
            <path id="Path_14112" data-name="Path 14112" d="M531.853,316.055a.52.52,0,0,0-.2-.292l-1.148-1.039c-.789-.714-2.1-2.476-3.088-2.8-1.325-.441-1.737.728-2.642,1.843a9.309,9.309,0,0,1-2.422,2.336c-1.487.859-3.326.835-4.916,1.485a2.635,2.635,0,0,0-.273.131c-.294-.06-.608-.128-.951-.212-.664-.163-2.094-.68-1.735.634.206.752,1.406,1.692,1.913,2.3l-2.894,5.274q.227,7.992.454,15.984.1,3.683.209,7.366c.024.853.045,1.705.073,2.558.012.383-.093,1.027.125,1.339.474.678,2.206.466,2.961.526a13.028,13.028,0,0,1,3.483.6,11.2,11.2,0,0,0,2.219.788.658.658,0,0,0,.509-.083.738.738,0,0,0,.194-.542c.271-3.658.276-7.429.479-11.126a66.71,66.71,0,0,0,.327-9.252c0-.051-.009-.1-.019-.151-.5-2.726-.173-5.1-.339-7.424a18.073,18.073,0,0,1,2.949-3.245,17.851,17.851,0,0,0,4.675-6.731A.511.511,0,0,0,531.853,316.055Z" transform="translate(-494.181 -311.824)" fill="#5d66d3"/>
          </g>
        </g>
      </g>
      <g id="Group_14226" data-name="Group 14226" transform="translate(19.816 7.387)">
        <g id="Group_14224" data-name="Group 14224" transform="translate(8.136)">
          <path id="Path_14113" data-name="Path 14113" d="M220.75,262.141a.6.6,0,0,0-.082.148c-.157.487.053.835.035,1.345-.008.227-.51.528-.12.8.144.1.531.3.84.508a3.359,3.359,0,0,1,1.043,1.552,23.9,23.9,0,0,1,1.087,7.159.87.87,0,0,1-.05.408.914.914,0,0,1-.606.389,18.559,18.559,0,0,0-3.176,1.327,6.931,6.931,0,0,0-2.4,1.881,3.118,3.118,0,0,0-.53,2.9,2.434,2.434,0,0,0,1.665,1.461c1.85.45,3.5-1.786,4.7-2.893a33.019,33.019,0,0,0,3.175-3.367,1.423,1.423,0,0,0,.3-.485,1.444,1.444,0,0,0,0-.6,72.139,72.139,0,0,0-1.62-7.675c-.179-.7-.7-1.215-.863-1.862-.1-.413.115-.811.105-1.222a3.966,3.966,0,0,0-.286-1.313c-.314-.738-1.12-.928-1.808-1.164a.861.861,0,0,0-.455-.072,1.245,1.245,0,0,0-.648.422A2.419,2.419,0,0,0,220.75,262.141Z" transform="translate(-216.627 -261.352)" fill="#eac5b0"/>
        </g>
        <g id="Group_14225" data-name="Group 14225" transform="translate(0 13.649)">
          <path id="Path_14114" data-name="Path 14114" d="M188.5,336.1l-1.945-4.189c.042.09-6.516,2.554-6.9,2.714a11.145,11.145,0,0,0-4.071,2.424,3.6,3.6,0,0,0,3.061,6.09,18.957,18.957,0,0,0,10.4-5.19.483.483,0,0,0,.141-.2.49.49,0,0,0-.067-.327Z" transform="translate(-174.57 -331.908)" fill="#d67086"/>
        </g>
      </g>
      <g id="Group_14232" data-name="Group 14232" transform="translate(0 47.684)">
        <g id="Group_14229" data-name="Group 14229" transform="translate(0)">
          <g id="Group_14228" data-name="Group 14228" transform="translate(0 15.05)">
            <g id="Group_14227" data-name="Group 14227">
              <path id="Path_14115" data-name="Path 14115" d="M72.743,550.029c-.087.527-.144,1.056-.188,1.542a16.539,16.539,0,0,1-.153,2.6,9.221,9.221,0,0,0-.246.964,1.467,1.467,0,0,0,.141.966,1.336,1.336,0,0,0,.914.526,1.694,1.694,0,0,0,2.253-1.528,8.85,8.85,0,0,0,.083-2.637c0-1.4-.376-2.6-.317-4.017a1.14,1.14,0,0,0-.119-.694.767.767,0,0,0-.662-.294,1.2,1.2,0,0,0-1.189.633A8.766,8.766,0,0,0,72.743,550.029Z" transform="translate(-72.133 -547.456)" fill="#292949"/>
            </g>
            <path id="Path_14116" data-name="Path 14116" d="M78.58,553.558a3.136,3.136,0,0,0-.656.8c-.127.2-.257.453-.128.648a.609.609,0,0,0,.2.169l.956.58a.34.34,0,0,0,.212.07.334.334,0,0,0,.162-.091,10.527,10.527,0,0,0,.876-.832C81.45,553.575,79.7,552.687,78.58,553.558Z" transform="translate(-76.658 -552.098)" fill="#eac5b0"/>
          </g>
          <path id="Path_14117" data-name="Path 14117" d="M103.272,474.358a1.363,1.363,0,0,0-.621-.715,26.677,26.677,0,0,0-9.287-3.984c-.282-.063-2.08,5.525-2.253,6.068-.671,2.1-1.243,4.24-1.733,6.394q-.8,3.54-1.662,7.068a30.758,30.758,0,0,0-3.507-2.96,1.417,1.417,0,0,0-.707-.328,1.357,1.357,0,0,0-.865.367,10.028,10.028,0,0,0-1.237,1.125.961.961,0,0,0-.286.472,1.008,1.008,0,0,0,.115.538c1.233,2.941,3.186,7.67,4.752,10.451a3.671,3.671,0,0,0,3.683,1.691,3.484,3.484,0,0,0,.967-.251c.388-.137.81-.135,1.2-.271a1.623,1.623,0,0,0,.64-.49,24.409,24.409,0,0,0,3.605-6.358,66.3,66.3,0,0,0,2.635-7.148q.084-.268.171-.533c1.195-3.625,2.808-6.744,4.252-10.3A1.256,1.256,0,0,0,103.272,474.358Z" transform="translate(-79.371 -469.658)" fill="#353a85"/>
        </g>
        <g id="Group_14231" data-name="Group 14231" transform="translate(18.187 0.241)">
          <g id="Group_14230" data-name="Group 14230" transform="translate(1.035 40.608)">
            <path id="Path_14118" data-name="Path 14118" d="M172.594,686.044a8.747,8.747,0,0,0,1.58.265,27.409,27.409,0,0,0,1.044-5.489c-1.066.633-1.574-.086-2.061,1.574A28.508,28.508,0,0,1,172.594,686.044Z" transform="translate(-172.381 -680.82)" fill="#eac5b0"/>
            <path id="Path_14119" data-name="Path 14119" d="M173.826,703.147c0,1.022.805,2.122,1.25,3.04a.629.629,0,0,1-.1.822,1.313,1.313,0,0,1-.533.5,1.249,1.249,0,0,1-.719-.008q-.6-.131-1.18-.316a.814.814,0,0,1-.274-.128.844.844,0,0,1-.2-.294,3.081,3.081,0,0,1-.493-1.56,9.4,9.4,0,0,0-.021-1.924c-.057-.306-.134-.7.128-.864.2-.13.573.049.793.085a3,3,0,0,1,1.106.243.519.519,0,0,1,.189.162A.435.435,0,0,1,173.826,703.147Z" transform="translate(-171.495 -698.202)" fill="#292949"/>
          </g>
          <path id="Path_14120" data-name="Path 14120" d="M166.864,484.053c.227,4.536.712,9.055.369,13.622-.424,5.642-.063,11.386-.7,16.974a13.631,13.631,0,0,0,1.973.524c.767.143,2,.31,2.524-.416a5.129,5.129,0,0,0,.443-1.523c.362-1.4.691-2.8,1.018-4.2a110.9,110.9,0,0,0,2.43-12.014c.5-4.261,1.042-8.526,1.636-12.759.307-2.187.53-4.387.649-6.592.031-.568.333-6.431.047-6.472a26.676,26.676,0,0,0-10.1.429,1.362,1.362,0,0,0-.834.448,1.258,1.258,0,0,0-.17.826c.063,2.765.455,5.462.576,8.235C166.767,482.095,166.814,483.061,166.864,484.053Z" transform="translate(-166.147 -470.902)" fill="#353a85"/>
        </g>
      </g>
      <path id="Path_14121" data-name="Path 14121" d="M125.318,348.906q-.083.028-.165.059a9.264,9.264,0,0,0-2.446,1.581,4.934,4.934,0,0,0-2.141,2.687,33.076,33.076,0,0,0-.919,3.924c-1.29,6.726-1.54,13.424-2.466,20.2-.252,1.845-.447,4.013.918,5.28,2.421-1.884,5.463-1.993,8.4-2,2.062,0,4.077-.67,6.144-.44,1.975.22,3.7-.274,5.7-.143.483.031,1.1.026,1.289-.419a26.349,26.349,0,0,1-.839-6.5c-.406-5.655-2.279-11.081-3.036-16.7-.257-1.909-.394-5.078-1.873-6.523-1.607-1.57-5.272-1.6-7.336-1.3A7.094,7.094,0,0,0,125.318,348.906Z" transform="translate(-108.322 -324.231)" fill="#d67086"/>
      <g id="Group_14236" data-name="Group 14236" transform="translate(8.249 6.273)">
        <g id="Group_14235" data-name="Group 14235" transform="translate(0 0)">
          <g id="Group_14234" data-name="Group 14234" transform="translate(7.881 4.78)">
            <g id="Group_14233" data-name="Group 14233" transform="translate(0 2.28)">
              <path id="Path_14122" data-name="Path 14122" d="M157.914,303.332a.74.74,0,0,0,.14.189,1.612,1.612,0,0,0,.9.418,4,4,0,0,0,1.308-.092c.583-.111.563-.453.647-.982.046-.289.075-.581.1-.873.012-.16-.05-.733.052-.845.069-.076.351-.051.475-.115a1.36,1.36,0,0,0,.477-.473,3.824,3.824,0,0,0,.4-.97l.533-1.75a9.27,9.27,0,0,0,.423-1.818,3.855,3.855,0,0,0-.769-2.939,4.22,4.22,0,0,0-2.445-.952,5.094,5.094,0,0,0-3.309.669,2.724,2.724,0,0,0-1.01,1,4.409,4.409,0,0,0-.3,2.3l.108,2.172a2.9,2.9,0,0,0,.769,2.244c.331.24.765.291,1.048.6a2.158,2.158,0,0,1,.347,1.451A1.782,1.782,0,0,0,157.914,303.332Z" transform="translate(-155.515 -292.085)" fill="#eac5b0"/>
            </g>
            <path id="Path_14123" data-name="Path 14123" d="M175.228,284.463a1.216,1.216,0,0,1,.1.212c.133.384.043.817.173,1.2.206.61.918.977,1.026,1.612.088.519-.267,1.013-.3,1.539-.033.575.335,1.119.278,1.686a3.75,3.75,0,0,1-.656,1.58c.091-.122.916-.079,1.13-.209a.866.866,0,0,0,.463-.668,6.9,6.9,0,0,1,.173-1.021c.185-.426.566-.739.7-1.194.182-.62-.148-1.275-.122-1.921.039-.978.884-1.9.577-2.828-.18-.545-.709-.893-1.007-1.384a7.4,7.4,0,0,1-.466-1.219,1.454,1.454,0,0,0-.844-.937,7.118,7.118,0,0,0-.72-.085,8.848,8.848,0,0,1-1.15-.495,2.174,2.174,0,0,0-1.9.862.991.991,0,0,0,.173,1.3C173.414,283.2,174.766,283.664,175.228,284.463Z" transform="translate(-169.217 -280.297)" fill="#292949"/>
          </g>
          <path id="Path_14124" data-name="Path 14124" d="M138.4,278.1a10.837,10.837,0,0,0-1.07.721,3.2,3.2,0,0,0-.742,2.307,15.493,15.493,0,0,0-.262,2.165,1.885,1.885,0,0,0,.694,1.345c.524.38,1.347.443,1.581,1.046.254.656-.425,1.482-.013,2.051.227.314.673.361,1,.572a2.866,2.866,0,0,1,.772,1.028,1.313,1.313,0,0,0,.988.753,3.607,3.607,0,0,0-.244-1.782c-.164-.351-.646-1-.276-1.378.234-.316.785-.418.8-.811a.906.906,0,0,0-.223-.5,2.258,2.258,0,0,1-.167-2.052,2.936,2.936,0,0,1,1.457-1.5c.753-.365.632-.549.85-1.269.2-.663.578-.819,1.175-1.061a1.259,1.259,0,0,0,.906-.854,1.46,1.46,0,0,0,.113-1.217,2.477,2.477,0,0,0-.758-.781,3.215,3.215,0,0,0-2.054-.9c-.423.03-.822.229-1.246.253-.283.016-.564-.046-.847-.056a2.252,2.252,0,0,0-1.382.418c-.394.29-.383.593-.6,1A1.473,1.473,0,0,1,138.4,278.1Z" transform="translate(-132.147 -272.039)" fill="#292949"/>
          <path id="Path_14125" data-name="Path 14125" d="M122.736,258.941c.074-.459.027-1.056-.411-1.211-.24-.085-.509.008-.759-.043-.532-.108-.712-.752-.991-1.217a.4.4,0,0,0-.166-.173.653.653,0,0,0-.343.009c-.529.065-.931-.457-1.429-.647a1.25,1.25,0,0,0-1.578.784c-.076.26-.063.54-.135.8-.29,1.059-1.841,1.51-1.881,2.607-.027.742.7,1.452.417,2.139-.18.439-.745.738-.681,1.208a.655.655,0,0,0,.669.5,1.314,1.314,0,0,0,.816-.372c.365-.319.64-.728.988-1.065a1.651,1.651,0,0,1,1.292-.551c.466.058.887.421,1.35.343.37-.062.645-.392,1.009-.485a3.426,3.426,0,0,1,1.045.068c.351.021.781-.161.791-.512a.876.876,0,0,1,.005-.254c.075-.226.462-.213.535-.44-.183-.282-.441-.181-.572-.55A2.025,2.025,0,0,1,122.736,258.941Z" transform="translate(-114.775 -255.589)" fill="#292949"/>
        </g>
      </g>
      <g id="Group_14239" data-name="Group 14239" transform="translate(5.945 25.244)">
        <g id="Group_14237" data-name="Group 14237" transform="translate(0 6.622)">
          <path id="Path_14126" data-name="Path 14126" d="M113.3,407.177a.6.6,0,0,0,.02-.168c-.04-.51-.366-.753-.544-1.231-.079-.213.271-.682-.192-.786-.171-.038-.6-.073-.97-.151a3.355,3.355,0,0,1-1.554-1.04,23.9,23.9,0,0,1-3.725-6.209.871.871,0,0,1-.109-.4.914.914,0,0,1,.413-.59,18.569,18.569,0,0,0,2.433-2.435,6.932,6.932,0,0,0,1.505-2.652,3.118,3.118,0,0,0-.611-2.883,2.434,2.434,0,0,0-2.1-.718c-1.882.287-2.562,2.984-3.252,4.463a33.025,33.025,0,0,0-1.658,4.321,1.418,1.418,0,0,0-.09.561,1.446,1.446,0,0,0,.23.559,72.119,72.119,0,0,0,4.415,6.485c.431.578,1.112.857,1.506,1.4.251.344.2.794.367,1.171a3.965,3.965,0,0,0,.763,1.106,2.582,2.582,0,0,0,2.115.39.861.861,0,0,0,.448-.106,1.244,1.244,0,0,0,.439-.637A2.41,2.41,0,0,0,113.3,407.177Z" transform="translate(-102.867 -387.892)" fill="#eac5b0"/>
        </g>
        <g id="Group_14238" data-name="Group 14238" transform="translate(1.15)">
          <path id="Path_14127" data-name="Path 14127" d="M110.068,364.433l3.391,3.136c-.073-.067,5.057-4.838,5.353-5.133a11.145,11.145,0,0,0,2.845-3.789,3.6,3.6,0,0,0-5.146-4.471,18.953,18.953,0,0,0-7.645,8.75.482.482,0,0,0-.055.239.491.491,0,0,0,.186.277Z" transform="translate(-108.81 -353.661)" fill="#d67086"/>
        </g>
      </g>
      <g id="Group_14267" data-name="Group 14267" transform="translate(27.951 15.594)">
        <path id="Path_14128" data-name="Path 14128" d="M302.191,624.444c-.4,2.2-.737,4.7.69,6.451,1.375,1.685,3.838,1.989,6.041,2.164,3.68.293,7.653.521,10.779-1.391a8.493,8.493,0,0,0,3.97-6.1,1.169,1.169,0,0,0-.011-.469,1.3,1.3,0,0,0-.4-.539l-3.983-3.774a4.815,4.815,0,0,0-1.052-.825,4.69,4.69,0,0,0-1.08-.359c-3.5-.842-8.065-1.957-11.686-1.4C302.322,618.673,302.669,621.851,302.191,624.444Z" transform="translate(-285.357 -557.251)" fill="#292949"/>
        <g id="Group_14242" data-name="Group 14242" transform="translate(7.694 28.523)">
          <g id="Group_14241" data-name="Group 14241">
            <g id="Group_14240" data-name="Group 14240">
              <path id="Path_14129" data-name="Path 14129" d="M267.712,473.546a2.54,2.54,0,0,0-.431-2.919l-4.124-4.3a11.612,11.612,0,0,1-2.394-2.65,29.413,29.413,0,0,1-1.422-5.923,11.074,11.074,0,0,1-.545-3.2c.023-.182.735-1.743.694-1.771l-.333-.274-.27.333-.3.03.488-1.171-1.369-.479-1.313,1.048a13.32,13.32,0,0,1,.7,3.092c-.01.452-.094.9-.142,1.348-.083.772-.062,1.549-.072,2.323-.01.749-.168,1.5-.168,2.237,0,1.646.012,3.292.018,4.938l6.7,7.835A2.6,2.6,0,0,0,267.712,473.546Z" transform="translate(-256.395 -451.222)" fill="#b97262"/>
            </g>
          </g>
          <path id="Path_14130" data-name="Path 14130" d="M279.208,518.168q.068-.322.14-.642c.9-.039,1.81.078,2.719.012,1.118-.082,2.217-.335,3.333-.444.5-.049,1.006-.068,1.51-.088,2.226-.086.707,3.261.411,4.431a39.749,39.749,0,0,1-1.651,5.135,24.792,24.792,0,0,1-1.2,2.571c-.23.422-.683,1.778-1.161,1.9-.385.1-.7-.3-.914-.633a14.028,14.028,0,0,0-4.123-4.192.627.627,0,0,1-.278-.283.611.611,0,0,1,0-.287C278.356,523.148,278.69,520.623,279.208,518.168Z" transform="translate(-273.802 -504.279)" fill="#474ebb"/>
        </g>
        <g id="Group_14245" data-name="Group 14245" transform="translate(28.622 27.786)">
          <g id="Group_14244" data-name="Group 14244" transform="translate(2.703)">
            <g id="Group_14243" data-name="Group 14243">
              <path id="Path_14131" data-name="Path 14131" d="M378.831,469.735a2.54,2.54,0,0,1,.43-2.919l4.124-4.3a11.607,11.607,0,0,0,2.394-2.65,29.411,29.411,0,0,0,1.422-5.923,11.072,11.072,0,0,0,.545-3.2c-.023-.182-.735-1.742-.694-1.771l.333-.274.27.333.3.03-.488-1.171,1.369-.478,1.313,1.048a13.32,13.32,0,0,0-.7,3.092c.01.452.094.9.142,1.348.083.772.062,1.549.072,2.323.01.749.168,1.5.168,2.237,0,1.646-.012,3.292-.018,4.938l-6.7,7.835A2.6,2.6,0,0,1,378.831,469.735Z" transform="translate(-378.552 -447.412)" fill="#b97262"/>
            </g>
          </g>
          <path id="Path_14132" data-name="Path 14132" d="M373.472,514.357q-.068-.322-.14-.642c-.9-.039-1.81.079-2.719.012-1.118-.082-2.217-.335-3.333-.444-.5-.049-1.006-.069-1.51-.088-2.226-.086-.707,3.261-.411,4.431a39.76,39.76,0,0,0,1.651,5.135,24.843,24.843,0,0,0,1.2,2.571c.23.422.683,1.778,1.161,1.9.385.1.7-.3.914-.633a14.031,14.031,0,0,1,4.123-4.192.628.628,0,0,0,.278-.283.612.612,0,0,0,0-.288C374.324,519.337,373.99,516.812,373.472,514.357Z" transform="translate(-364.578 -500.468)" fill="#474ebb"/>
        </g>
        <g id="Group_14248" data-name="Group 14248" transform="translate(15.201 25.053)">
          <path id="Path_14133" data-name="Path 14133" d="M303.39,510.824a5.918,5.918,0,0,0-4.411,2.839,14.468,14.468,0,0,0-1.372,4.224,105.928,105.928,0,0,0-1.6,11.391c-.393,3.65-1.438,7.5-.277,11.1.155.482.6,1.059,1.04.811l.687-2.388a2.562,2.562,0,0,1,.432-.969,2.332,2.332,0,0,1,.752-.532,13.047,13.047,0,0,1,4.926-1.38,17.644,17.644,0,0,1,5.646.6c1.814.46,3.564,1.279,5.392,1.618q1.8.334,3.556.841a.2.2,0,0,0,.119.01c.073-.023.095-.113.1-.188a6.044,6.044,0,0,0-.185-2.409,13.884,13.884,0,0,1-.289-2.471,48.019,48.019,0,0,0-.761-5.264c-.791-3.774-2.162-7.4-2.829-11.206-.288-1.642-.466-4.365-2.016-5.623-1.685-1.367-5.488-1.435-7.627-1.195C304.236,510.685,303.806,510.745,303.39,510.824Z" transform="translate(-295.198 -495.586)" fill="#474ebb"/>
          <g id="Group_14247" data-name="Group 14247" transform="translate(2.578)">
            <g id="Group_14246" data-name="Group 14246">
              <path id="Path_14134" data-name="Path 14134" d="M324.958,471a3.1,3.1,0,0,1-2.213.17.49.49,0,0,1-.369-.415,12.724,12.724,0,0,1-.079-1.705c0-.147-2.008-.786-2.234-.949-1.26-.913-1.478-2.546-1.549-3.988a3.466,3.466,0,0,1,.288-1.939,3.041,3.041,0,0,1,1.864-1.2,10.512,10.512,0,0,1,3.694-.39,3.762,3.762,0,0,1,2.982,1.379c.888,1.369.662,4.059-.093,5.429-.437.793-1.137,1.044-1.694,1.663C325.042,469.626,325.194,470.3,324.958,471Z" transform="translate(-316.569 -455.28)" fill="#736052"/>
              <path id="Path_14135" data-name="Path 14135" d="M320.3,438.349a1.168,1.168,0,0,0,.236-.944,4.7,4.7,0,0,0-.385-.587c-.269-.509.055-1.157-.132-1.7-.246-.716-1.279-1.011-1.35-1.764-.272-.243-.594.224-.9.424-.693.454-1.52-.606-2.339-.483-.624.093-1.034.854-1.664.825-.471-.021-.931-.494-1.347-.272-.184.1-.281.305-.443.437-.516.421-1.531,0-1.819.6-.169.352-.1.664-.46.9-.318.207-.946-.132-1.142.321a.69.69,0,0,0-.029.32q.113,1.64.225,3.281a1.626,1.626,0,0,0,.223.858c.124.171.315.3.4.489.1.24.013.522.075.775.1.411,1.437,2.523,1.836,1.822a1.284,1.284,0,0,0,.045-.85,1.849,1.849,0,0,1,.092-1.242c.339-.578,1.132-.637,1.8-.679a4.443,4.443,0,0,0,1.812-.418c.383-.2.893-.485,1.185-.166.076.083.118.2.207.266a.516.516,0,0,0,.564-.048,1.227,1.227,0,0,1,.54-.25c.2-.009.414.214.3.382.069.2.359-.063.572-.049.177.011.256.223.292.4l.334,1.56a1.027,1.027,0,0,0,1.019-.642c.453-1.024-.247-2.005-.013-2.983A2.354,2.354,0,0,1,320.3,438.349Z" transform="translate(-308.524 -433.284)" fill="#1a1a1a"/>
            </g>
          </g>
        </g>
        <g id="Group_14262" data-name="Group 14262" transform="translate(0 0)">
          <g id="Group_14255" data-name="Group 14255">
            <g id="Group_14250" data-name="Group 14250">
              <g id="Group_14249" data-name="Group 14249">
                <circle id="Ellipse_31" data-name="Ellipse 31" cx="17.266" cy="17.266" r="17.266" transform="translate(0 24.418) rotate(-45)" fill="#ebe259"/>
              </g>
            </g>
            <g id="Group_14252" data-name="Group 14252" transform="translate(10.345 9.253)" opacity="0.08">
              <g id="Group_14251" data-name="Group 14251">
                <path id="Path_14136" data-name="Path 14136" d="M292.464,351.609A17.269,17.269,0,0,1,270.1,376.762a17.268,17.268,0,1,0,22.368-25.153Z" transform="translate(-270.096 -351.609)"/>
              </g>
            </g>
            <g id="Group_14254" data-name="Group 14254" transform="translate(8.307 8.431)">
              <g id="Group_14253" data-name="Group 14253">
                <path id="Path_14137" data-name="Path 14137" d="M260.863,365.9a16.03,16.03,0,0,1,28.22-11.18,16.032,16.032,0,1,0-25.7,19.055A15.956,15.956,0,0,1,260.863,365.9Z" transform="translate(-259.563 -347.357)" fill="#fff" opacity="0.2"/>
              </g>
            </g>
          </g>
          <g id="Group_14256" data-name="Group 14256" transform="translate(16.486 25.815)">
            <path id="Path_14138" data-name="Path 14138" d="M302.794,437.955a.57.57,0,0,0-.9.666,8.655,8.655,0,0,0,15.994-.632.569.569,0,0,0-.95-.582C314.54,439.979,309.354,443.726,302.794,437.955Z" transform="translate(-301.842 -437.226)" fill="#292949"/>
          </g>
          <g id="Group_14259" data-name="Group 14259" transform="translate(13.8 17.489)">
            <g id="Group_14257" data-name="Group 14257" transform="translate(14.816)">
              <path id="Path_14139" data-name="Path 14139" d="M364.577,396.343a3.2,3.2,0,0,1,5.906-.351.514.514,0,0,1-.8.609,2.739,2.739,0,0,0-4.24.26.514.514,0,0,1-.863-.519Z" transform="translate(-364.548 -394.185)" fill="#292949"/>
            </g>
            <g id="Group_14258" data-name="Group 14258" transform="translate(0 0.733)">
              <path id="Path_14140" data-name="Path 14140" d="M287.987,400.132a3.2,3.2,0,0,1,5.906-.351.514.514,0,0,1-.8.61,2.739,2.739,0,0,0-4.24.26.514.514,0,0,1-.863-.519Z" transform="translate(-287.958 -397.973)" fill="#292949"/>
            </g>
          </g>
          <g id="Group_14260" data-name="Group 14260" transform="translate(7.694 23.282)">
            <ellipse id="Ellipse_32" data-name="Ellipse 32" cx="3.015" cy="3.015" rx="3.015" ry="3.015" transform="matrix(0.842, -0.539, 0.539, 0.842, 0, 3.249)" fill="#d67086"/>
          </g>
          <g id="Group_14261" data-name="Group 14261" transform="translate(34.201 23.177)">
            <path id="Path_14141" data-name="Path 14141" d="M399.444,426.45a3.015,3.015,0,1,1-3.16-2.862A3.015,3.015,0,0,1,399.444,426.45Z" transform="translate(-393.419 -423.585)" fill="#d67086"/>
          </g>
        </g>
        <g id="Group_14264" data-name="Group 14264" transform="translate(18.344 52.527)">
          <g id="Group_14263" data-name="Group 14263" transform="translate(1.296 20.88)">
            <path id="Path_14142" data-name="Path 14142" d="M328.158,688.388a8.084,8.084,0,0,1-1.48.018,25.324,25.324,0,0,1-.175-5.158c.883.728,1.449.144,1.658,1.729A26.318,26.318,0,0,0,328.158,688.388Z" transform="translate(-324.84 -683.248)" fill="#b97262"/>
            <path id="Path_14143" data-name="Path 14143" d="M319.752,705.541c-.6-.119-.528,1.265-.484,1.587a2.41,2.41,0,0,1,.057.581,1.561,1.561,0,0,1-.241.592l-.675,1.168a1.829,1.829,0,0,0-.242.553,1.078,1.078,0,0,0,.735,1.163c1.65.546,2.772-1.54,2.92-2.829.023-.2.031-.4.039-.6.017-.411.19-1.327-.027-1.694-.253-.428-.764-.014-1.157-.131C320.313,705.826,320,705.589,319.752,705.541Z" transform="translate(-318.151 -701.222)" fill="#292949"/>
          </g>
          <path id="Path_14144" data-name="Path 14144" d="M318.44,576.68a5.2,5.2,0,0,1,.406.516,8.4,8.4,0,0,1,1.3,4.963,25.038,25.038,0,0,1-.836,5.138,34.737,34.737,0,0,0-1.2,6.159c-.054,1.1-.239,2.215-.361,3.313-.109.98-.229,1.962-.3,2.945-.026.347-.082.366-.451.423a8.053,8.053,0,0,1-4-.4c-.6-.222-.42-1.376-.472-1.9-.151-1.514-.268-3.032-.381-4.549-.226-3.032-.5-6.062-.593-9.1-.077-2.631-.5-5.221,1.349-7.371a3.959,3.959,0,0,1,2.718-1.508A3.7,3.7,0,0,1,318.44,576.68Z" transform="translate(-311.45 -575.31)" fill="#292949"/>
        </g>
        <g id="Group_14266" data-name="Group 14266" transform="translate(25.483 52.468)">
          <g id="Group_14265" data-name="Group 14265" transform="translate(4.096 19.911)">
            <path id="Path_14145" data-name="Path 14145" d="M371.249,683.275a8.279,8.279,0,0,0,1.514-.054,25.912,25.912,0,0,0-.074-5.285c-.868.788-1.475.219-1.612,1.85A27.019,27.019,0,0,1,371.249,683.275Z" transform="translate(-370.775 -677.935)" fill="#b97262"/>
            <path id="Path_14146" data-name="Path 14146" d="M371.717,700.709c.61-.152.6,1.269.573,1.6a2.477,2.477,0,0,0-.03.6,1.6,1.6,0,0,0,.275.594l.748,1.162a1.877,1.877,0,0,1,.275.553,1.1,1.1,0,0,1-.7,1.225c-1.661.64-2.912-1.439-3.126-2.75-.033-.2-.051-.4-.069-.607-.038-.42-.259-1.349-.055-1.734.238-.45.781-.052,1.177-.191C371.157,701.029,371.47,700.771,371.717,700.709Z" transform="translate(-369.527 -696.294)" fill="#292949"/>
          </g>
          <path id="Path_14147" data-name="Path 14147" d="M349.779,576.465a5.078,5.078,0,0,0-.37.52,8.164,8.164,0,0,0-1.029,4.878,24.311,24.311,0,0,0,1.051,4.948,33.773,33.773,0,0,1,1.451,5.923c.051.527,1.067,6.431.957,6.436.714-.034,1.424.161,2.145.082.778-.085,1.556-.136,2.331-.25a5.969,5.969,0,0,1,.173-1.1c.046-.388,0-.78.023-1.17.076-1.477.119-2.955.158-4.433.078-2.953.208-5.908.152-8.863-.048-2.557.239-5.091-1.652-7.093a3.847,3.847,0,0,0-2.708-1.338A3.6,3.6,0,0,0,349.779,576.465Z" transform="translate(-348.354 -575.006)" fill="#292949"/>
        </g>
      </g>
    </g>
  </g>
</svg>
