<svg id="Layer_1" data-name="Layer 1" xmlns="http://www.w3.org/2000/svg" viewBox="0 0 288.34 337.97"><defs><style>.cls-1{fill:#FFFFFF;}</style></defs><title>Incode Request failure picture</title><path class="cls-1" d="M533.1,606.3c8.24-1.91,16.48-3.87,24.79-5.47a32.14,32.14,0,0,1,4.52-.77c.76.1,1.1-1.07.32-1.18a13.91,13.91,0,0,0-4.1.57c-8.67,1.61-17.27,3.68-25.86,5.68-.76.18-.44,1.35.33,1.17Z" transform="translate(-355.78 -331.04)"/><path class="cls-1" d="M533.76,469.82c0,36.88,0,73.74-1,110.61q-.31,12.65-.46,25.29a.61.61,0,0,0,1.22,0c.36-26.52,1.21-53,1.33-79.52q.14-28.19.1-56.38a.61.61,0,0,0-1.22,0Z" transform="translate(-355.78 -331.04)"/><path class="cls-1" d="M503.66,476.13v115.8a.61.61,0,0,0,1.22,0V476.13a.61.61,0,0,0-1.22,0Z" transform="translate(-355.78 -331.04)"/><path class="cls-1" d="M563,560.64c-.38,12.94-.67,25.88-1,38.83a.61.61,0,0,0,1.22,0c.35-13,.64-25.89,1-38.83,0-.79-1.19-.79-1.22,0Z" transform="translate(-355.78 -331.04)"/><path class="cls-1" d="M564,463.76c0,24.06.19,48.12-.29,72.18a.61.61,0,0,0,1.22,0c.48-24.06.29-48.12.29-72.18a.61.61,0,0,0-1.22,0Z" transform="translate(-355.78 -331.04)"/><path class="cls-1" d="M464.19,491.07c-2.81,19.57-5.58,39-11.52,57.91-.24.75.94,1.07,1.17.32,6-18.92,8.72-38.33,11.53-57.9.11-.77-1.07-1.1-1.18-.33Z" transform="translate(-355.78 -331.04)"/><path class="cls-1" d="M452.67,549c-2.07,6.46-4.6,12.6-9.4,17.53-6.11,6.27-15.67,11.77-24.39,7.46-8-3.93-10.62-11.4-11.56-19.59-2.57-22.29,5.29-45.71,12.94-66.25.28-.73-.9-1.05-1.17-.32-5.58,15-10.43,30.39-12.49,46.27-1.13,8.63-1.55,17.71.52,26.25,2.28,9.38,10,17.47,20.36,16.29,14.14-1.61,22.45-15.08,26.36-27.32.24-.75-.93-1.07-1.17-.32Z" transform="translate(-355.78 -331.04)"/><path class="cls-1" d="M422.31,573.26c-10.84-6.19-12.7-18.41-12.67-30,0-18.76,5.78-37.34,12.26-54.75.28-.74-.9-1.06-1.17-.32-6.8,18.27-12.93,38-12.27,57.79.37,11.3,2.78,22.33,13.24,28.3a.61.61,0,0,0,.61-1Z" transform="translate(-355.78 -331.04)"/><path class="cls-1" d="M459,491c-2.71,18.9-5.34,37.56-11.08,55.82-.24.76.94,1.08,1.17.33,5.74-18.27,8.37-36.93,11.08-55.82.11-.77-1.06-1.1-1.17-.33Z" transform="translate(-355.78 -331.04)"/><path class="cls-1" d="M447.93,546.77c-2,6.26-4.42,12.21-9,17.07-5.87,6.27-15.07,12.08-23.68,7.9-.71-.34-1.33.71-.62,1.06,7.85,3.8,16,.05,22.17-5.26,6.4-5.48,9.74-12.54,12.26-20.44.24-.75-.94-1.07-1.17-.33Z" transform="translate(-355.78 -331.04)"/><path class="cls-1" d="M460.14,490.88c1.25-3,2.25-6.1,3.35-9.15.56-1.52.51-2.37,2.3-2.68,1.27-.67,1.85-.25,1.74,1.27l-.19,1.55a38.66,38.66,0,0,1-1.29,4.47c-.36,1.11-.74,2.23-1.17,3.31-.24.58-.87,1.37-.31,1.18l.75.75a.61.61,0,0,1,.05-.18c.24-.75-.94-1.07-1.18-.33a1.05,1.05,0,0,0-.05.19c-.07.42.27.91.75.75,1.36-.47,2.12-4.66,2.46-5.74.75-2.39,3-7.79-.51-9.27s-4.73,5-5.43,7c-.78,2.19-1.55,4.4-2.44,6.55-.31.73.87,1,1.17.33Z" transform="translate(-355.78 -331.04)"/><path class="cls-1" d="M504,592.45,532.07,606c.71.34,1.32-.72.62-1.06l-28.11-13.5c-.71-.34-1.33.71-.62,1.05Z" transform="translate(-355.78 -331.04)"/><path class="cls-1" d="M597.24,345.06c5,3,8,8.59,10.42,13.69a50.51,50.51,0,0,1,5.17,20.85.61.61,0,0,0,1.22,0,52.05,52.05,0,0,0-5.33-21.47c-2.59-5.34-5.63-11-10.87-14.12a.61.61,0,0,0-.61,1.05Z" transform="translate(-355.78 -331.04)"/><path class="cls-1" d="M553.34,352.42c10.12,8,13.2,23,16.12,34.78.19.76,1.37.43,1.18-.33-3-11.95-6.17-27.23-16.44-35.32-.61-.48-1.48.38-.86.87Z" transform="translate(-355.78 -331.04)"/><path class="cls-1" d="M613.28,379c-14.21,2.64-28.46,5-42.71,7.41-.77.13-.44,1.3.33,1.17,14.25-2.38,28.49-4.76,42.7-7.4.77-.14.45-1.32-.32-1.18Z" transform="translate(-355.78 -331.04)"/><path class="cls-1" d="M597.38,344c-14.57,2.64-29.12,5.29-43.77,7.45-.77.11-.45,1.29.32,1.17,14.65-2.15,29.21-4.81,43.78-7.44.77-.14.44-1.32-.33-1.18Z" transform="translate(-355.78 -331.04)"/><path class="cls-1" d="M571.12,366.25c9.62-1.84,19.23-3.8,28.9-5.37.77-.13.44-1.3-.33-1.18-9.66,1.57-19.27,3.53-28.89,5.37-.77.15-.45,1.33.32,1.18Z" transform="translate(-355.78 -331.04)"/><path class="cls-1" d="M573,371.67c9.82-1.87,19.7-3.48,29.51-5.42.77-.15.45-1.33-.32-1.18-9.82,1.94-19.69,3.55-29.52,5.42-.77.15-.44,1.33.33,1.18Z" transform="translate(-355.78 -331.04)"/><path class="cls-1" d="M574.67,377.61c10.15-1.73,20.3-3.5,30.48-5.13.77-.12.44-1.3-.33-1.17-10.17,1.62-20.32,3.39-30.48,5.12-.77.13-.44,1.31.33,1.18Z" transform="translate(-355.78 -331.04)"/><path class="cls-1" d="M566.31,357.06a12.07,12.07,0,0,1,1.8,4.5c.18.76,1.36.44,1.18-.33a13.11,13.11,0,0,0-1.92-4.78c-.45-.64-1.51,0-1.06.61Z" transform="translate(-355.78 -331.04)"/><path class="cls-1" d="M566.68,355.53l0,0-.69.28,0,0-.45-.59.06-.22.69-.28-.1,0,.43.43,0-.1-.89.69-.1-.08c.37.69,1.43.07,1.05-.62a.88.88,0,0,0-.34-.35.62.62,0,0,0-.9.69.75.75,0,0,0,.55.55.61.61,0,0,0,.69-.28.71.71,0,0,0,.11-.4.62.62,0,0,0-.45-.59h0a.62.62,0,0,0-.69.28v0c-.35.7.7,1.32,1,.61Z" transform="translate(-355.78 -331.04)"/><path class="cls-1" d="M568.88,356.27c.88,1.46,1,3,1.49,4.61a.61.61,0,0,0,1.18-.33c-.5-1.7-.67-3.34-1.62-4.89-.41-.67-1.46-.06-1,.61Z" transform="translate(-355.78 -331.04)"/><path class="cls-1" d="M570.62,357.12a1.27,1.27,0,0,1,2.44-.35,8.43,8.43,0,0,1,.84,3.52c0,.78,1.25.78,1.22,0-.09-1.85-.5-4.59-2.44-5.43-1.62-.71-3.11.73-3.28,2.26-.09.78,1.13.77,1.22,0Z" transform="translate(-355.78 -331.04)"/><path class="cls-1" d="M579.65,354.9a2.77,2.77,0,0,0-3-.61,2.66,2.66,0,0,0-1.65,3.19,3.27,3.27,0,0,0,2.25,2.77,3,3,0,0,0,3.27-1.87c.35-.7-.7-1.32-1-.61s-1,1.5-1.9,1.31a2.07,2.07,0,0,1-1.36-1.73,1.5,1.5,0,0,1,.91-1.93,1.53,1.53,0,0,1,1.66.34c.58.53,1.44-.33.87-.86Z" transform="translate(-355.78 -331.04)"/><path class="cls-1" d="M584.12,352.86a2.65,2.65,0,0,0-2.86,1.24,3.21,3.21,0,0,0,.12,3.47c.42.66,1.48.05,1-.61a2,2,0,0,1-.23-2,1.47,1.47,0,0,1,1.59-.88c.75.24,1.07-.93.33-1.18Z" transform="translate(-355.78 -331.04)"/><path class="cls-1" d="M583.24,358.69a2.78,2.78,0,0,0,3.44-1.7,3.06,3.06,0,0,0-.82-3.32c-.58-.53-1.44.33-.86.86a1.83,1.83,0,0,1,.62,1.7,1.57,1.57,0,0,1-2,1.28c-.74-.27-1.06.91-.33,1.18Z" transform="translate(-355.78 -331.04)"/><path class="cls-1" d="M592.1,352.74a3,3,0,0,0-4.09-.32,3.39,3.39,0,0,0-.07,4.49,2.66,2.66,0,0,0,4-.09,3.43,3.43,0,0,0,.6-2.78c-.13-.77-1.31-.45-1.18.32a5,5,0,0,1,0,.93,1.55,1.55,0,0,1-2.13,1.13,2.21,2.21,0,0,1-.67-2.66,1.68,1.68,0,0,1,2.71-.16c.54.57,1.4-.3.86-.86Z" transform="translate(-355.78 -331.04)"/><path class="cls-1" d="M589.46,349.57a22.47,22.47,0,0,1,2.24,6.8c.11.77,1.28.44,1.17-.33a23.49,23.49,0,0,0-2.35-7.09c-.35-.7-1.4-.09-1.06.62Z" transform="translate(-355.78 -331.04)"/><path class="cls-1" d="M595.44,356.25c.39-.83.78-1.66,1.16-2.49a7.13,7.13,0,0,0,.79-2,.58.58,0,0,0-.3-.53,3.12,3.12,0,0,0-3.52.54,3,3,0,0,0-.43,3.15,3.1,3.1,0,0,0,5.66,0c.31-.72-.75-1.34-1.06-.62a1.88,1.88,0,0,1-3.3.47,1.83,1.83,0,0,1-.19-1.83,1.76,1.76,0,0,1,2.23-.65l-.31-.52a7.76,7.76,0,0,1-.84,1.86c-.31.67-.62,1.34-.94,2s.72,1.33,1.05.62Z" transform="translate(-355.78 -331.04)"/><path class="cls-1" d="M486.41,419.43c19.48-4.09,39-8.14,58.38-12.69.76-.18.44-1.35-.33-1.17-19.38,4.55-38.89,8.59-58.37,12.68-.77.16-.45,1.34.32,1.18Z" transform="translate(-355.78 -331.04)"/><path class="cls-1" d="M535.94,421.72l9.17-1.82c.77-.16.45-1.33-.32-1.18l-9.17,1.82c-.77.15-.45,1.33.32,1.18Z" transform="translate(-355.78 -331.04)"/><path class="cls-1" d="M544,406.15c0,4.39.29,8.77.32,13.16a.61.61,0,0,0,1.22,0c0-4.39-.3-8.77-.32-13.16a.61.61,0,0,0-1.22,0Z" transform="translate(-355.78 -331.04)"/><path class="cls-1" d="M485.48,418.84c0,4,.15,7.9.16,11.85a.61.61,0,0,0,1.22,0c0-3.95-.16-7.9-.16-11.85a.61.61,0,0,0-1.22,0Z" transform="translate(-355.78 -331.04)"/><path class="cls-1" d="M535.17,414.55v6.58a.61.61,0,0,0,1.22,0v-6.58a.61.61,0,0,0-1.22,0Z" transform="translate(-355.78 -331.04)"/><path class="cls-1" d="M535.62,414c-16.33,6-33,10.72-49.53,16.14-.75.25-.43,1.42.32,1.18,16.51-5.42,33.2-10.18,49.53-16.14.73-.27.42-1.45-.32-1.18Z" transform="translate(-355.78 -331.04)"/><path class="cls-1" d="M490.58,455.21a2.27,2.27,0,0,1,4.08.34,4.81,4.81,0,0,1-.51,4.56c-1.21,1.85-3.46,1.39-4.2-.65a4.74,4.74,0,0,1,.63-4.25c.42-.67-.64-1.29-1.05-.62-1.29,2.1-1.59,5,.27,6.92s4.14,1.21,5.4-.79,1.6-5.14-.31-6.91-4-1-5.36.78C489.06,455.22,490.11,455.82,490.58,455.21Z" transform="translate(-355.78 -331.04)"/><path class="cls-1" d="M491.92,461.42c-2.2-.06-4-.74-4.52-3a4.44,4.44,0,0,1,1.14-4.26c1.29-1.16,3.07-.68,4.49,0,.71.32,1.33-.73.61-1.05-1.65-.74-3.57-1.27-5.25-.3a5.34,5.34,0,0,0-2.36,4.51c0,3.56,2.56,5.29,5.89,5.38a.61.61,0,0,0,0-1.22Z" transform="translate(-355.78 -331.04)"/><path class="cls-1" d="M522.62,448.51a2.28,2.28,0,0,1,4.08.35,4.79,4.79,0,0,1-.51,4.55c-1.21,1.86-3.46,1.4-4.2-.65a4.75,4.75,0,0,1,.63-4.25c.42-.67-.64-1.28-1-.61-1.29,2.1-1.59,5,.27,6.92s4.14,1.21,5.4-.79,1.6-5.14-.31-6.91-4-1-5.36.78C521.09,448.52,522.15,449.13,522.62,448.51Z" transform="translate(-355.78 -331.04)"/><path class="cls-1" d="M524,454.72c-2.2-.05-4-.74-4.52-3a4.45,4.45,0,0,1,1.14-4.27c1.29-1.16,3.07-.68,4.49,0,.71.31,1.33-.74.61-1.06-1.65-.74-3.57-1.26-5.25-.3a5.36,5.36,0,0,0-2.36,4.51c0,3.57,2.56,5.3,5.89,5.38a.61.61,0,0,0,0-1.22Z" transform="translate(-355.78 -331.04)"/><path class="cls-1" d="M550.88,441.73a2.26,2.26,0,0,1,4.07.34,4.81,4.81,0,0,1-.5,4.56c-1.22,1.85-3.47,1.4-4.21-.65a4.78,4.78,0,0,1,.64-4.25.61.61,0,0,0-1-.62c-1.3,2.11-1.6,5,.26,6.92s4.15,1.21,5.41-.79,1.59-5.14-.32-6.91-4-1-5.35.78C549.35,441.74,550.41,442.35,550.88,441.73Z" transform="translate(-355.78 -331.04)"/><path class="cls-1" d="M552.22,447.94c-2.21-.06-4-.74-4.52-3a4.43,4.43,0,0,1,1.13-4.26c1.3-1.16,3.07-.68,4.49-.05.71.32,1.34-.73.62-1.05-1.65-.74-3.58-1.27-5.26-.3a5.35,5.35,0,0,0-2.36,4.51c0,3.56,2.57,5.29,5.9,5.38a.61.61,0,0,0,0-1.22Z" transform="translate(-355.78 -331.04)"/><path class="cls-1" d="M611,429.4a2.27,2.27,0,0,1,4.07.35,4.76,4.76,0,0,1-.5,4.55c-1.22,1.86-3.47,1.4-4.21-.65a4.78,4.78,0,0,1,.64-4.25c.41-.67-.64-1.28-1-.61-1.29,2.1-1.6,5,.27,6.92s4.14,1.21,5.4-.79,1.6-5.14-.32-6.91-4-1-5.35.78C609.46,429.41,610.52,430,611,429.4Z" transform="translate(-355.78 -331.04)"/><path class="cls-1" d="M503.8,367.87c4.3-3.68,8.44-7.54,12.69-11.27l-1-.59a90.54,90.54,0,0,1-6,15.2.62.62,0,0,0,.52.92c2.84.2,5.67.38,8.51.51,1.37.06,3.42-.29,4.73.17l1.89.05a2.53,2.53,0,0,1-1.61,2.26c-2.95,2.79-7,4.83-10.35,7.09-.65.44,0,1.49.61,1.05,4.67-3.15,10.48-6,13.77-10.67a.61.61,0,0,0-.52-.92c-2.22,0-15,.79-15.68-1.49-.22-.73,1.92-4.2,2.31-5.17a88.84,88.84,0,0,0,3-8.68.61.61,0,0,0-1-.59c-4.25,3.73-8.39,7.59-12.69,11.27-.6.51.27,1.37.86.86Z" transform="translate(-355.78 -331.04)"/><path class="cls-1" d="M512.72,383c.47,1.34,3.36,11,2.33,11.14s-3.24-1.94-4.12-2.5l-5.41-3.44a.62.62,0,0,0-.9.36c-2.46,5.88-5.52,11.46-8.15,17.26l1.14.3c-.84-6.87-1.42-13.68-1.63-20.61a.61.61,0,0,0-1.22,0c.21,6.93.79,13.74,1.63,20.61.06.52.85.93,1.14.31,1.92-4.25,4.12-8.36,6.1-12.59,1.05-2.25.85-4.08,3.59-3.11s6,3.82,8.5,5.41a.62.62,0,0,0,.92-.53,51.49,51.49,0,0,0-2.74-12.93c-.26-.74-1.44-.42-1.18.32Z" transform="translate(-355.78 -331.04)"/><path class="cls-1" d="M493.82,368.44a83.27,83.27,0,0,1,2.42-11.15l-1,.27a68.35,68.35,0,0,1,7.63,10.19c.41.66,1.47.05,1-.62a69.68,69.68,0,0,0-7.81-10.43.61.61,0,0,0-1,.27,84.74,84.74,0,0,0-2.43,11.14c-.12.77,1.05,1.1,1.18.33Z" transform="translate(-355.78 -331.04)"/><path class="cls-1" d="M488.29,378.52c-3.3-3.86-6.72-7.61-10-11.51l-.43,1c5.1.44,10.24.39,15.35.83.78.07.77-1.15,0-1.22-5.11-.44-10.25-.39-15.35-.83-.58-.05-.74.67-.43,1,3.26,3.9,6.67,7.66,10,11.52.51.59,1.37-.27.86-.87Z" transform="translate(-355.78 -331.04)"/><path class="cls-1" d="M495.06,385c-4.85,2.34-10.15,3.37-15,5.65l.84.83c2.38-4.17,4.78-8.28,7.51-12.24.44-.65-.61-1.26-1.06-.61-2.72,4-5.12,8.07-7.51,12.24a.62.62,0,0,0,.84.83c4.86-2.27,10.16-3.31,15-5.65.7-.34.09-1.39-.62-1.05Z" transform="translate(-355.78 -331.04)"/><path class="cls-1" d="M522.75,371.77c-3.54,4-8.44,6.78-12.82,9.74-.64.44,0,1.5.62,1.06,4.45-3,9.45-5.88,13.06-9.94.52-.59-.34-1.45-.86-.86Z" transform="translate(-355.78 -331.04)"/><path class="cls-1" d="M510.53,360.42c-1.25,3.61-2.56,7.18-4.13,10.66a.62.62,0,0,0,.53.92l3.08.13c.79,0,.79-1.19,0-1.22l-3.08-.13.52.91c1.62-3.57,3-7.24,4.25-10.94.26-.75-.92-1.07-1.17-.33Z" transform="translate(-355.78 -331.04)"/><path class="cls-1" d="M502,369.49l1.78-1.62c.59-.53-.28-1.39-.86-.86l-1.78,1.62c-.58.52.28,1.39.86.86Z" transform="translate(-355.78 -331.04)"/><path class="cls-1" d="M505.52,388.23c-.9-.57-1.81-1.11-2.7-1.68a.63.63,0,0,0-.84.22c-2,4-4,8-5.78,12.13-.32.71.73,1.33,1.05.61,1.83-4.09,3.8-8.11,5.79-12.12l-.84.22c.9.56,1.81,1.1,2.7,1.67.67.42,1.28-.63.62-1Z" transform="translate(-355.78 -331.04)"/><path class="cls-1" d="M509.48,382.34a75.22,75.22,0,0,1,2.63,11.12c.16.77,1.33.44,1.18-.33A75.54,75.54,0,0,0,510.65,382c-.26-.73-1.44-.42-1.17.33Z" transform="translate(-355.78 -331.04)"/><path class="cls-1" d="M494.5,360.23a58.78,58.78,0,0,1,6.56,9.13c.42.67,1.48.06,1.06-.61a61.11,61.11,0,0,0-6.75-9.38c-.54-.58-1.4.29-.87.86Z" transform="translate(-355.78 -331.04)"/><path class="cls-1" d="M482.72,388.84A34.11,34.11,0,0,1,487,387c.78-.3,1.57-.58,2.36-.86s2.39-1.21,3.09-1.18a9.45,9.45,0,0,1,2.57,1.1c.71.31,1.34-.74.62-1.05a13.29,13.29,0,0,0-2.67-1.15c-1.62-.24-4.11,1.15-5.68,1.73a37.89,37.89,0,0,0-5.22,2.19c-.69.37-.08,1.43.61,1Z" transform="translate(-355.78 -331.04)"/><path class="cls-1" d="M467.21,477.55c1.05-22.33,2.42-44.81-.58-67.06-2.22-16.45-5.79-39.66-23.45-46.7-15.13-6-26.17,6.23-29.53,19.91-2.76,11.24-2.11,23.53-2.32,35q-.37,20.21-.4,40.43a.61.61,0,0,0,1.22,0c0-21.12-.08-42.35,1.11-63.44.74-13.09,5.53-31.95,21.76-32.32,22.32-.5,27.76,28.95,30.17,45.58,3.3,22.73,1.88,45.75.8,68.59,0,.79,1.19.79,1.22,0Z" transform="translate(-355.78 -331.04)"/><path class="cls-1" d="M411.24,459.67C428.08,468,445,476,462.37,483.17c.73.3,1-.88.32-1.18-17.27-7.13-34.08-15.11-50.84-23.38-.7-.34-1.32.71-.61,1.06Z" transform="translate(-355.78 -331.04)"/><path class="cls-1" d="M630.55,405.51c-.24,15-1.2,30-2.39,45-.06.79,1.16.78,1.22,0,1.19-15,2.15-30,2.39-45a.61.61,0,0,0-1.22,0Z" transform="translate(-355.78 -331.04)"/><path class="cls-1" d="M591.29,332.42c31.08-2.81,36,33.53,38.53,56.42.08.78,1.3.79,1.22,0-2.57-23.55-7.93-60.52-39.75-57.64-.77.07-.78,1.29,0,1.22Z" transform="translate(-355.78 -331.04)"/><path class="cls-1" d="M467.58,484.54c47.74-9.48,95.26-20.17,143-29.78l18.36-3.69c.77-.15.45-1.33-.32-1.18-41.85,8.37-83.76,16.58-125.43,25.84-11.95,2.66-23.91,5.25-35.93,7.63-.76.16-.44,1.33.33,1.18Z" transform="translate(-355.78 -331.04)"/><path class="cls-1" d="M432.45,363.59c45-9.41,90-18.63,135.17-27.1,7.83-1.47,15.74-3.24,23.67-4.07.78-.08.78-1.3,0-1.22-17.54,1.83-35.08,6.19-52.36,9.57q-36.39,7.13-72.71,14.56-17.06,3.5-34.09,7.09c-.77.16-.45,1.33.32,1.17Z" transform="translate(-355.78 -331.04)"/><path class="cls-1" d="M411.71,459.73q28.19-6.19,56.38-12.41c.77-.16.44-1.34-.33-1.17l-56.38,12.4c-.76.17-.44,1.35.33,1.18Z" transform="translate(-355.78 -331.04)"/><path class="cls-1" d="M625.66,402.24c-.84,0-.7.92-.2,1.29a7.31,7.31,0,0,0,1.35.72c1.33.64,2.69,1.21,4,1.79.72.3,1.34-.75.62-1.06-1.57-.66-3.17-1.31-4.69-2.1-.16-.08-.5-.37-.68-.39s.13,0,.06.09c-.27.29,0,.86-.5.88a.61.61,0,0,0,0-1.22Z" transform="translate(-355.78 -331.04)"/><path class="cls-1" d="M630.12,388.32a44.28,44.28,0,0,0-5.94,3.75c-.31.24-.46.84,0,1.05,2.3,1,4.62,2,7,2.89l-.37-.89c-1.8,2.47-3.61,4.94-5.57,7.29-.5.6.36,1.47.86.87,2-2.43,3.9-5,5.76-7.55.26-.34,0-.77-.36-.89-2.27-.84-4.49-1.79-6.69-2.77v1.05a44,44,0,0,1,5.94-3.75c.69-.37.07-1.43-.62-1.05Z" transform="translate(-355.78 -331.04)"/><path class="cls-1" d="M564.48,535.35c-3.8-.78-8.51,0-8.18,4.94.21,3.27,3.44,4.54,6.34,4.48l-.16-1.2c-2.23.83-5.37,2-5.89,4.72-.72,3.68,3.88,5.83,6.78,5.93l-.16-1.2c-2.67.64-6.36-.18-5.87,3.81.39,3.12,3.57,4.22,6.25,4.42.79,0,.78-1.17,0-1.22-2.65-.19-6.73-2.23-3.92-4.7,1.18-1.05,2.41-.79,3.87-1.14a.61.61,0,0,0-.17-1.19c-3.62-.12-7.09-4.43-3.43-7a13.39,13.39,0,0,1,2.86-1.3c.61-.23.57-1.21-.16-1.19a6.67,6.67,0,0,1-2.31-.29,2.1,2.1,0,0,1-1.52-1.17c-1.86-1-1.64-2.15.65-3.49,2.09-2.75,1.69-2.69,4.7-2.07.77.15,1.09-1,.32-1.18Z" transform="translate(-355.78 -331.04)"/><path class="cls-1" d="M371.68,650l-6.91,6.22c-.59.53.28,1.39.86.86l6.91-6.22c.58-.52-.28-1.39-.86-.86Z" transform="translate(-355.78 -331.04)"/><path class="cls-1" d="M453.41,620.92c-.63-4.13-1.56-8.19-2.5-12.26-.59-2.56-.73-6.22-2.47-8.36-2.6-3.21-7.57-2.11-11-1.37-.77.17-.44,1.35.32,1.18,5.2-1.14,9.66-1.28,11.07,5.07,1.19,5.34,2.54,10.64,3.36,16.06.12.78,1.3.45,1.18-.32Z" transform="translate(-355.78 -331.04)"/><path class="cls-1" d="M372.61,656.22c-2.84.91-6.76,2.14-9-.7-1.89-2.43-2.28-8-3-11-1.28-5.52-2.47-11-3.26-16.63-1-6.9,9.9-7.3,15-8.43,5.49-1.24,10.92-2.76,16.38-4.16,8.11-2.09,16.25-4.08,24.3-6.42,8.49-2.46,16.47-5.77,24.74-8.79.74-.27.42-1.45-.32-1.18-10.5,3.83-20.7,7.76-31.53,10.71-11.22,3.07-22.55,6.11-33.9,8.66-4.13.93-12.44,1.24-15.27,4.92-2.2,2.87-.19,8.18.46,11.36.81,4,1.72,8,2.66,12,.74,3.15,1,7.89,3.29,10.41,2.5,2.75,6.71,1.4,9.74.43.75-.24.43-1.42-.32-1.18Z" transform="translate(-355.78 -331.04)"/><path class="cls-1" d="M426.9,614.72c-4.39,4-8.8,8-13.36,11.79-.61.5.26,1.36.86.86,4.57-3.79,9-7.78,13.36-11.79.58-.53-.28-1.39-.86-.86Z" transform="translate(-355.78 -331.04)"/><path class="cls-1" d="M419.59,623.36l11.18,2.42c.76.17,1.09-1,.32-1.17l-11.17-2.42c-.77-.17-1.1,1-.33,1.17Z" transform="translate(-355.78 -331.04)"/><path class="cls-1" d="M357.23,624.72c7.56,1.46,15,3.8,22.58,5,.77.12,1.1-1.06.32-1.18-7.56-1.19-15-3.53-22.57-5-.77-.15-1.1,1-.33,1.17Z" transform="translate(-355.78 -331.04)"/><path class="cls-1" d="M427.76,615.58c6-5.17,11.68-10.77,17.58-16.1.58-.52-.28-1.38-.86-.86-5.9,5.33-11.55,10.93-17.58,16.1-.6.51.27,1.37.86.86Z" transform="translate(-355.78 -331.04)"/><path class="cls-1" d="M410.34,645c-7.8,3.85-15.34,8.33-23,12.44-3.81,2-7.91,4.15-11.19,7-.6.52.27,1.38.86.86,3.61-3.15,8.26-5.42,12.47-7.62,7.21-3.77,14.19-8,21.49-11.64.7-.35.08-1.4-.62-1Z" transform="translate(-355.78 -331.04)"/><path class="cls-1" d="M466,633.26l.08-.3h1.05c-.12-.17-.23-2.69-.29-3.3-.19-2.23-.28-4.65-1.64-6.53-2.27-3.15-6.7-2.85-10.06-2.45-.77.09-.78,1.32,0,1.22,4.2-.5,9.06-.55,10.12,4.58.41,2,.39,4,.63,6a2.46,2.46,0,0,0,.19,1.11.62.62,0,0,0,1.14-.32c.06-.78-1.16-.78-1.22,0Z" transform="translate(-355.78 -331.04)"/><path class="cls-1" d="M410.94,667.28c13.86-1.2,27.47-3.52,41.22-5.54.78-.11.45-1.28-.32-1.17-13.64,2-27.16,4.3-40.9,5.49-.78.07-.79,1.29,0,1.22Z" transform="translate(-355.78 -331.04)"/><path class="cls-1" d="M455,620.7c-9.29,1.64-18.45,3.53-27.84,4.62-8.21,1-16.48,1.31-24.72,1.92-6.13.45-12.23.85-18.37,1.09-3.34.12-9.67-.36-12.11,2.62-2.28,2.78-.63,10.12-.35,13.37.55,6.17.21,14.15,2.53,20,1.35,3.37,3.84,4.68,7.29,4.72,7.5.09,15.15-.74,22.63-1.27.78-.06.79-1.28,0-1.22-7.35.52-14.87,1.29-22.24,1.26-8.95,0-7.91-12.34-8.58-19.06-.35-3.61-.77-7.24-.85-10.87,0-1.16-.37-3.16-.09-4.2.93-3.39,4.36-3.64,7.07-3.89,6-.54,12.06-.46,18.07-.92,9.77-.76,19.59-1.14,29.33-2.25s19-3,28.56-4.71c.77-.14.44-1.31-.33-1.18Z" transform="translate(-355.78 -331.04)"/><path class="cls-1" d="M442.73,634.4c-6.33,4.39-14.15,11-22.16,11.16-7.6.19-15.79-2.87-22.88-5.28-.75-.25-1.07.93-.33,1.18,7.55,2.56,16.73,6.16,24.85,5.2,7.74-.91,14.93-6.91,21.13-11.21.64-.44,0-1.5-.61-1.05Z" transform="translate(-355.78 -331.04)"/><path class="cls-1" d="M434.46,641.71c7.69,2.85,15.08,6.37,22.75,9.26.74.28,1.06-.9.33-1.18-7.68-2.89-15.07-6.4-22.76-9.26-.73-.28-1,.9-.32,1.18Z" transform="translate(-355.78 -331.04)"/><path class="cls-1" d="M372.61,632c8.24,3.14,16.39,6.66,24.75,9.48.75.25,1.07-.93.33-1.18-8.36-2.81-16.51-6.34-24.76-9.48-.73-.28-1.05.9-.32,1.18Z" transform="translate(-355.78 -331.04)"/><path class="cls-1" d="M443.34,635.45c6.59-4,12.86-8.58,19.34-12.8.65-.43,0-1.49-.62-1.06-6.47,4.23-12.74,8.76-19.33,12.81-.67.41-.06,1.46.61,1.05Z" transform="translate(-355.78 -331.04)"/><path class="cls-1" d="M466.6,632.65a4.3,4.3,0,0,0-4.06,2.56,8,8,0,0,0-.61,4.12c.07.79.68,1.84.64,2.56l-1.89,5q-.82.41-1.62.87c-2.45,2.1-2.22,3.13-2.76,6.24-.57,3.29-1.92,2.94-3.78,4.85a3.55,3.55,0,0,0-1.11,2.1c-.18.77,1,1.09,1.18.33.62-2.6,3.64-2.43,4.71-4.61.39-.79.17-.92.27-1.7.38-2.88.7-4.23,3.18-6.74,1.31-1.33,2.68-1.47,3.21-3.56.73-2.84-3.53-11,2.64-10.84a.61.61,0,0,0,0-1.22Z" transform="translate(-355.78 -331.04)"/><path class="cls-1" d="M404.61,667a7,7,0,0,1,.64-4.31l-.84.22c.43.23.76,1.71,1,2.17a9.59,9.59,0,0,0,1.47,2.57.59.59,0,0,0,.59.16c1-.36,1.13-1.74,1.3-2.65a19.79,19.79,0,0,0,.39-3c0-.81-1.13-.76-1.22,0,0,.27-.06.55-.08.82h1.22l.07-.73-1.14.31c.52.79.57,1.83,1.14,2.59a5.59,5.59,0,0,0,.63.57,3.36,3.36,0,0,1,.58,1.11c.28.73,1.46.41,1.17-.32a4.52,4.52,0,0,0-1-1.75c-.79-.8-.85-1.89-1.44-2.81a.62.62,0,0,0-1.14.3l-.07.73c-.08.78,1.14.78,1.22,0,0-.27.05-.55.08-.82h-1.22c0,.76-.31,4.27-.79,4.44l.59.16a10.69,10.69,0,0,1-1.8-3.62,2.18,2.18,0,0,0-.9-1.32.64.64,0,0,0-.84.22c-.93,1.31-1,3.71-.76,5.25.12.77,1.3.45,1.18-.32Z" transform="translate(-355.78 -331.04)"/><path class="cls-1" d="M393.08,614.08a15.63,15.63,0,0,1,1.39,5.27c.13.77,1.31.45,1.18-.32a16.46,16.46,0,0,0-1.51-5.57.61.61,0,0,0-1.06.62Z" transform="translate(-355.78 -331.04)"/><path class="cls-1" d="M396.27,613.43a9.84,9.84,0,0,1,1,3.58c.15.77,1.33.45,1.17-.32a10.31,10.31,0,0,0-1.13-3.87c-.44-.65-1.5,0-1.06.61Z" transform="translate(-355.78 -331.04)"/><path class="cls-1" d="M437.66,614a21,21,0,0,1,8.12-2.27c.77-.05.78-1.27,0-1.22a22.52,22.52,0,0,0-8.73,2.43c-.7.36-.08,1.41.61,1.06Z" transform="translate(-355.78 -331.04)"/><path class="cls-1" d="M439.62,617q3.45-.79,6.93-1.35c.78-.13.45-1.3-.32-1.18-2.33.37-4.64.83-6.93,1.36-.77.18-.44,1.35.32,1.17Z" transform="translate(-355.78 -331.04)"/><path class="cls-1" d="M442.06,610.53a17.11,17.11,0,0,1,2.22,6.72c.09.77,1.31.78,1.22,0a18.47,18.47,0,0,0-2.39-7.33.61.61,0,0,0-1.05.61Z" transform="translate(-355.78 -331.04)"/><path class="cls-1" d="M438.81,611.52,442,618.6c.32.72,1.37.1,1-.62l-3.15-7.07c-.32-.72-1.37-.1-1.06.61Z" transform="translate(-355.78 -331.04)"/><path class="cls-1" d="M464.68,490.65a287.71,287.71,0,0,1-44.84-3.27c-.77-.11-1.1,1.06-.33,1.18a290.74,290.74,0,0,0,45.17,3.31.61.61,0,0,0,0-1.22Z" transform="translate(-355.78 -331.04)"/><path class="cls-1" d="M410.37,457.68c-1.19,3.91-2.54,7.78-3.73,11.7-.49,1.6-.44,3.43,1.39,4.14,5.28,2,7-9.43,7.63-12.18.17-.77-1-1.1-1.18-.33-.3,1.36-2.68,13.84-6.32,11.22-1.37-1,0-3.58.4-4.76,1-3.15,2-6.3,3-9.47.23-.75-.95-1.07-1.18-.32Z" transform="translate(-355.78 -331.04)"/><path class="cls-1" d="M589.34,444.72c1.92-.59,3.55.58,3.18,2.69a4.81,4.81,0,0,1-3.79,3.54c-2,.28-2.8-1.54-2.29-3.23a4.7,4.7,0,0,1,2.9-3c.72-.29.41-1.47-.32-1.17a5.78,5.78,0,0,0-4,5.09,3.29,3.29,0,0,0,4.14,3.47c2.43-.57,4.74-2.9,4.6-5.5s-2.48-3.78-4.78-3.06C588.27,443.78,588.59,445,589.34,444.72Z" transform="translate(-355.78 -331.04)"/><path class="cls-1" d="M586.83,450.48c-2.07-1.58-2.93-3.7-1.37-6a4.22,4.22,0,0,1,3.46-1.88c1.51.12,2.48,1.47,3.17,2.66a.61.61,0,0,0,1-.61c-.86-1.5-2.06-2.95-3.87-3.22a5.21,5.21,0,0,0-4.52,2c-2.38,2.9-1.27,6,1.47,8.12.62.47,1.23-.59.61-1.06Z" transform="translate(-355.78 -331.04)"/><path class="cls-1" d="M587.47,441.82a72.55,72.55,0,0,0-7.44-9.3c-.54-.57-1.4.3-.86.86a71.87,71.87,0,0,1,7.25,9.05c.45.64,1.5,0,1.05-.61Z" transform="translate(-355.78 -331.04)"/><path class="cls-1" d="M585.14,443.44a89.26,89.26,0,0,0-7-8.33c-.53-.57-1.4.29-.86.87a85.44,85.44,0,0,1,6.76,8.07c.46.63,1.52,0,1.06-.61Z" transform="translate(-355.78 -331.04)"/><path class="cls-1" d="M581.72,440.24a3.11,3.11,0,0,1-3.81-1.41,5.18,5.18,0,0,1,1.08-5.19,2.56,2.56,0,0,1,3.83-.24c1.23,1.17,1.3,3,1.06,4.55-.12.77,1,1.1,1.17.32.34-2.17.15-4.57-1.71-6a3.77,3.77,0,0,0-5.32.61c-1.51,1.77-2.31,4.91-1,7a4.45,4.45,0,0,0,5.28,1.42c.71-.34.09-1.39-.61-1.05Z" transform="translate(-355.78 -331.04)"/><path class="cls-1" d="M638.06,597.5c.84-1.63,2.59-2.18,3.93-.72a4.64,4.64,0,0,1,.48,4.8c-.91,2.14-3.21,2-4.28.08a4.82,4.82,0,0,1-.07-4.3c.29-.73-.89-1.05-1.17-.33-.89,2.24-.68,5,1.33,6.6s4.39.68,5.32-1.57.71-5.2-1.36-6.67-4.19-.53-5.23,1.5C636.65,597.59,637.7,598.2,638.06,597.5Z" transform="translate(-355.78 -331.04)"/><path class="cls-1" d="M640.45,603.3c-2.49.37-4.5-.36-5.18-2.91a4.21,4.21,0,0,1,1-4.06c1.13-1,2.77-.76,4.1-.42a.61.61,0,0,0,.33-1.18c-1.68-.42-3.55-.58-5,.52a5.22,5.22,0,0,0-1.71,4.86c.58,3.61,3.45,4.87,6.8,4.37.78-.11.45-1.29-.32-1.18Z" transform="translate(-355.78 -331.04)"/><path class="cls-1" d="M634.54,596.78c-1.6,0-3.21-.07-4.81-.14-.79,0-.79,1.19,0,1.22,1.6.07,3.21.17,4.81.14a.61.61,0,0,0,0-1.22Z" transform="translate(-355.78 -331.04)"/><path class="cls-1" d="M634.34,600.13l-.15,0-.81.06c-1.12,0-2.25,0-3.38-.06-.78,0-.78,1.17,0,1.22a21.44,21.44,0,0,0,4.67-.06c.77-.14.44-1.31-.33-1.18Z" transform="translate(-355.78 -331.04)"/><path class="cls-1" d="M622.5,598.46c.52.91.6,2.28,1.46,2.95a.61.61,0,0,0,.74-.1l2.72-2.73-1-.43.26,2.33a.63.63,0,0,0,.61.61c.92.08,1.83.18,2.75.28s.78-1.14,0-1.22-1.83-.2-2.75-.28l.61.61-.26-2.33a.62.62,0,0,0-1-.43l-2.72,2.73.74-.1c-.22-.16-.3-.88-.38-1.12a8.79,8.79,0,0,0-.65-1.39.61.61,0,0,0-1,.62Z" transform="translate(-355.78 -331.04)"/><path class="cls-1" d="M619.86,596.11c-2.06.35-4,.9-6,1.45a.62.62,0,0,0,0,1.18c1.24.49,2.46,1,3.68,1.57a6.16,6.16,0,0,0,2.12.7c1.39,0,2.87-1.56,3.82-2.43.59-.53-.28-1.39-.86-.86-1.21,1.1-2.38,2.43-4.09,1.7-1.45-.61-2.88-1.27-4.34-1.86v1.18a59.25,59.25,0,0,1,6-1.45c.77-.13.45-1.31-.32-1.18Z" transform="translate(-355.78 -331.04)"/><path class="cls-1" d="M630.26,596.94a16.87,16.87,0,0,0-2.17-3.79.62.62,0,0,0-.74-.1,13.69,13.69,0,0,0-2.45,3.18H626a27.09,27.09,0,0,0-2.06-3.53.62.62,0,0,0-1,0c-.69,1.21-1.63,2.87-3,3.41-.72.29-.41,1.47.32,1.18,1.71-.69,2.83-2.43,3.71-4h-1a26.44,26.44,0,0,1,2.06,3.53.61.61,0,0,0,1.05,0,12.53,12.53,0,0,1,2-2.74l-.74-.1a15.74,15.74,0,0,1,2,3.55c.37.69,1.43.08,1.06-.62Z" transform="translate(-355.78 -331.04)"/></svg>