<svg id="Layer_1" data-name="Layer 1" xmlns="http://www.w3.org/2000/svg" viewBox="0 0 343.02 338.11"><defs><style>.form-color{fill:#FFFFFF;}</style></defs><title>illustration for forms</title><path class="form-color" d="M444.46,452.87c-3,6.77-7.67,13.13-11.53,19.39-.47.76.73,1.46,1.19.7,3.86-6.26,8.56-12.62,11.53-19.39.36-.81-.84-1.51-1.19-.7Z" transform="translate(-307.5 -365.35)"/><path class="form-color" d="M386.79,490.39c-15.35,16.3-31.6,31.94-48.14,47-.66.6.32,1.57,1,1,16.53-15.09,32.78-30.73,48.14-47,.61-.65-.37-1.63-1-1Z" transform="translate(-307.5 -365.35)"/><path class="form-color" d="M338.65,450.73c15.35,13,30,26.8,46.09,39,.71.53,1.4-.67.7-1.2-16-12.09-30.55-25.79-45.81-38.74-.67-.58-1.66.4-1,1Z" transform="translate(-307.5 -365.35)"/><path class="form-color" d="M437.38,425.63c-21.4,4.3-42.74,8.92-64.06,13.59q-13.95,3.06-27.95,5.86c-9.85,2-9.75,9.27-10,17.88-.25,10.56-.22,21.11-.2,31.67l.06,21.5c0,5.72-1.32,13.3.77,18.7,2.52,6.48,10.69,7.94,16.72,7.07,11.89-1.71,23.77-5.18,35.52-7.74,20.13-4.38,40.26-8.88,60.44-13,.87-.17.5-1.51-.37-1.33-15.67,3.2-31.29,6.75-46.93,10.09q-14.57,3.11-29.09,6.32c-5.37,1.18-10.74,2.44-16.13,3.55s-11.5,2-16.16-2-3.36-10.48-3.38-15.8l-.05-20.53c0-11.13-.35-22.31,0-33.44.11-3.6,0-7.22.23-10.81.39-7.42,4.24-9.9,10.85-11.17,8.69-1.68,17.34-3.6,26-5.49,21.32-4.68,42.66-9.3,64.05-13.6.87-.18.51-1.51-.36-1.33Z" transform="translate(-307.5 -365.35)"/><path class="form-color" d="M432.93,472.26c-4.4,7-9.15,14.33-14.77,20.37-5.4,5.81-11.83,8.42-19.47,4.89-4.82-2.22-9-5.58-13.11-8.91-.68-.56-1.67.41-1,1,8.07,6.59,19.4,15.51,29.8,8.24,8.38-5.85,14.35-16.35,19.72-24.87.48-.76-.72-1.45-1.19-.7Z" transform="translate(-307.5 -365.35)"/><path class="form-color" d="M424.13,486.44c7.87,5.8,15.94,11.22,24.06,16.67.74.5,1.43-.7.69-1.19-8.11-5.45-16.18-10.87-24.05-16.68-.71-.53-1.4.67-.7,1.2Z" transform="translate(-307.5 -365.35)"/><path class="form-color" d="M382.23,438.13c1.8-13.91,8.48-31.92,24.9-33.12,19.16-1.4,29.7,17.79,34,33.54,9.64,35.54,7.35,72.95,5.65,109.31,0,.89,1.34.89,1.38,0,1.56-33.35,3.4-67.1-3.43-100C442,434.5,438,419.57,427,410.56c-8.3-6.8-20.15-9.52-29.74-3.79-10.79,6.45-14.86,19.63-16.37,31.36-.11.88,1.27.87,1.38,0Z" transform="translate(-307.5 -365.35)"/><path class="form-color" d="M397.76,531.93c14.66,7.24,29.26,14,44.37,20.21.82.34,1.18-1,.37-1.34-15-6.18-29.5-12.88-44-20.07-.8-.39-1.5.8-.7,1.2Z" transform="translate(-307.5 -365.35)"/><path class="form-color" d="M600.52,366.91c34.55-3.28,43.76,35.11,47.07,61.92,3.4,27.56.5,55.67-1.71,83.2-.07.89,1.31.88,1.38,0,2.37-29.49,5.5-59.66.89-89.09-2.06-13.16-4.74-27.76-12-39.15-8-12.62-20.58-19.69-35.65-18.26-.88.08-.89,1.47,0,1.38Z" transform="translate(-307.5 -365.35)"/><path class="form-color" d="M451.32,553c27-5,53.78-11.33,80.68-16.94q46.65-9.72,93.38-19.06l21.37-4.29c.88-.18.51-1.51-.36-1.34-50.53,10.1-101.1,20.09-151.43,31.16-14.64,3.22-29.27,6.39-44,9.14-.87.16-.5,1.49.37,1.33Z" transform="translate(-307.5 -365.35)"/><path class="form-color" d="M529,703.43c10.17-2.37,20.34-4.77,30.59-6.75a37.68,37.68,0,0,1,5.45-.93c.87.13,1.25-1.2.37-1.33-1.6-.24-3.58.44-5.12.72-10.62,2-21.14,4.51-31.66,7-.86.2-.5,1.53.37,1.33Z" transform="translate(-307.5 -365.35)"/><path class="form-color" d="M405.34,405.21c55.52-11.62,111.1-23,166.86-33.44,9.37-1.75,18.83-3.88,28.32-4.86.88-.09.89-1.47,0-1.38-21.53,2.22-43.06,7.6-64.28,11.75q-44.58,8.73-89.1,17.84Q426,399.44,405,403.88c-.87.18-.5,1.52.37,1.33Z" transform="translate(-307.5 -365.35)"/><path class="form-color" d="M529.88,535.78c0,45.34,0,90.65-1.18,136-.26,10.33-.43,20.67-.57,31a.69.69,0,0,0,1.38,0c.45-32.61,1.49-65.19,1.64-97.8q.17-34.59.12-69.18a.7.7,0,0,0-1.39,0Z" transform="translate(-307.5 -365.35)"/><path class="form-color" d="M492.9,543.54V685.82a.7.7,0,0,0,1.39,0V543.54a.7.7,0,0,0-1.39,0Z" transform="translate(-307.5 -365.35)"/><path class="form-color" d="M567,528.34c0,26,.22,52.06-.14,78.09-.42,29.56-1.54,59.1-2.36,88.66,0,.89,1.35.89,1.38,0,.82-29.56,2-59.1,2.36-88.66.37-26,.15-52.06.15-78.09a.7.7,0,0,0-1.39,0Z" transform="translate(-307.5 -365.35)"/><path class="form-color" d="M436.58,555.5c-23.73,18.38-48.86,35.31-75.37,49.41-.79.42-.09,1.62.7,1.2,26.62-14.17,51.82-31.17,75.65-49.63.7-.54-.29-1.51-1-1Z" transform="translate(-307.5 -365.35)"/><path class="form-color" d="M361.21,604.91c-9.54,5-19,8.24-29.92,6.3-12.69-2.27-21.2-10.67-22.16-23.66-1.49-20.14,20.54-36,34.8-46.33.72-.52,0-1.72-.7-1.2-16.7,12.05-39.58,29.36-34.69,52.83,2.33,11.15,11.54,17.74,22.38,19.69,11.26,2,21.09-1.21,31-6.43.78-.42.08-1.61-.7-1.2Z" transform="translate(-307.5 -365.35)"/><path class="form-color" d="M388.32,534c16.09,7.65,32.45,14.67,48.4,22.62.79.4,1.49-.8.7-1.19-15.95-8-32.31-15-48.4-22.63-.8-.38-1.5.81-.7,1.2Z" transform="translate(-307.5 -365.35)"/><path class="form-color" d="M312.46,599.08c-1.66-12.27,1.37-23.65,9.43-33s18.6-16.46,28.4-23.94c.69-.53,0-1.73-.7-1.19-10.66,8.13-22.27,15.82-30.6,26.49-7.22,9.24-9.43,20.49-7.86,32,.11.87,1.45.5,1.33-.37Z" transform="translate(-307.5 -365.35)"/><path class="form-color" d="M436.58,563.69c-23.14,17.91-47.85,33.65-73.33,48a.69.69,0,0,0,.7,1.19,605.91,605.91,0,0,0,73.61-48.22c.7-.55-.29-1.52-1-1Z" transform="translate(-307.5 -365.35)"/><path class="form-color" d="M363.25,611.7c-13.35,7-31,10.59-44.11.85-9.22-6.85-11.13-17-9.94-28,.09-.88-1.29-.88-1.39,0-1.25,11.58,1,22.1,10.63,29.24,13.55,10,31.73,6.35,45.51-.85.79-.41.09-1.61-.7-1.19Z" transform="translate(-307.5 -365.35)"/><path class="form-color" d="M436.48,556.1c-.18,2.69.08,5.39-.1,8.08-.07.89,1.32.88,1.38,0,.18-2.69-.08-5.39.1-8.08.06-.89-1.32-.89-1.38,0Z" transform="translate(-307.5 -365.35)"/><path class="form-color" d="M437.42,556.59c1.39-1,2.75-2,4.1-3s2.4-1.88,3.56-2.86c.61-.5,1.19-1.06,1.81-1.54,1.57-1.24,5.07-1.57,4.41,1.25s-5.14,5.76-7.37,7.65-4.73,3.78-7.21,5.52c-.73.51,0,1.71.7,1.19a106.79,106.79,0,0,0,10-7.91c2.26-2,6.79-5.13,5.37-8.82-1.08-2.81-4.12-1.82-6-.53-3.49,2.38-6.55,5.45-10,7.89-.73.5,0,1.7.7,1.19Z" transform="translate(-307.5 -365.35)"/><path class="form-color" d="M493.25,686.42,527.78,703c.8.38,1.51-.81.7-1.19L494,685.23c-.8-.39-1.51.8-.7,1.19Z" transform="translate(-307.5 -365.35)"/><path class="form-color" d="M607.85,382.45C614.17,386.17,618,393.51,621,400a61.36,61.36,0,0,1,6,25,.69.69,0,0,0,1.38,0,62.94,62.94,0,0,0-6.21-25.66c-3.19-6.75-7-14.13-13.66-18a.69.69,0,0,0-.7,1.19Z" transform="translate(-307.5 -365.35)"/><path class="form-color" d="M554.07,391.6c12.4,9.47,16.17,28.44,19.69,42.66.21.86,1.54.49,1.33-.37-3.61-14.6-7.57-33.75-20.32-43.48-.71-.54-1.4.66-.7,1.19Z" transform="translate(-307.5 -365.35)"/><path class="form-color" d="M627.55,424.27c-17.46,3.24-35,6.17-52.47,9.1-.88.15-.51,1.48.37,1.33,17.51-2.93,35-5.85,52.47-9.09.87-.17.5-1.5-.37-1.34Z" transform="translate(-307.5 -365.35)"/><path class="form-color" d="M608,381.19c-17.9,3.24-35.78,6.5-53.79,9.15-.87.13-.5,1.46.37,1.33,18-2.64,35.88-5.91,53.79-9.15.87-.15.5-1.49-.37-1.33Z" transform="translate(-307.5 -365.35)"/><path class="form-color" d="M575.72,408.48c11.82-2.26,23.63-4.68,35.5-6.6.88-.14.51-1.48-.36-1.33-11.88,1.92-23.69,4.34-35.51,6.6-.87.16-.5,1.5.37,1.33Z" transform="translate(-307.5 -365.35)"/><path class="form-color" d="M578.07,415.14c12.08-2.3,24.21-4.27,36.27-6.66.87-.17.5-1.51-.37-1.33-12.06,2.38-24.19,4.35-36.26,6.66-.88.16-.51,1.5.36,1.33Z" transform="translate(-307.5 -365.35)"/><path class="form-color" d="M580.08,422.43c12.48-2.12,24.95-4.29,37.45-6.29.87-.14.5-1.47-.37-1.33-12.5,2-25,4.17-37.45,6.29-.87.15-.5,1.48.37,1.33Z" transform="translate(-307.5 -365.35)"/><path class="form-color" d="M569.88,397.22a15.15,15.15,0,0,1,2.22,5.53c.2.87,1.53.5,1.33-.36a16,16,0,0,0-2.36-5.87c-.5-.72-1.7,0-1.19.7Z" transform="translate(-307.5 -365.35)"/><path class="form-color" d="M570.23,395.34l0,0-.78.32h0L569,395l.06-.23.78-.32.17.1.2.49v-.08l-1,.59-.1-.08c.43.78,1.62.09,1.2-.7a1.12,1.12,0,0,0-.4-.41.7.7,0,0,0-1,.6.83.83,0,0,0,.66.82.71.71,0,0,0,.78-.32.84.84,0,0,0,.13-.46.71.71,0,0,0-.51-.67h0a.71.71,0,0,0-.79.31l0,0c-.39.8.8,1.5,1.2.7Z" transform="translate(-307.5 -365.35)"/><path class="form-color" d="M573,396.25c1.09,1.79,1.26,3.71,1.84,5.67a.7.7,0,0,0,1.34-.37c-.62-2.08-.83-4.1-2-6-.46-.76-1.66-.06-1.19.7Z" transform="translate(-307.5 -365.35)"/><path class="form-color" d="M575.06,397.32a1.63,1.63,0,0,1,3.11-.47,10.34,10.34,0,0,1,1,4.36c0,.89,1.43.89,1.39,0-.11-2.25-.61-5.61-3-6.62-2-.84-3.74.89-4,2.73-.1.88,1.29.87,1.39,0Z" transform="translate(-307.5 -365.35)"/><path class="form-color" d="M586.17,394.63a3.35,3.35,0,0,0-3.62-.74,3.22,3.22,0,0,0-2,3.86,4,4,0,0,0,2.72,3.36c1.77.45,3.22-.79,4-2.27.4-.79-.8-1.5-1.19-.7s-1.22,1.89-2.4,1.64a2.57,2.57,0,0,1-1.71-2.17,1.89,1.89,0,0,1,1.15-2.44,2,2,0,0,1,2.1.44c.66.6,1.64-.37,1-1Z" transform="translate(-307.5 -365.35)"/><path class="form-color" d="M591.69,392.14a3.19,3.19,0,0,0-3.44,1.49,3.89,3.89,0,0,0,.14,4.22c.48.74,1.67,0,1.19-.7a2.57,2.57,0,0,1-.28-2.56,1.87,1.87,0,0,1,2-1.12c.85.29,1.21-1.05.37-1.33Z" transform="translate(-307.5 -365.35)"/><path class="form-color" d="M590.65,399.19a3.34,3.34,0,0,0,4.14-2.05,3.7,3.7,0,0,0-1-4c-.65-.6-1.63.37-1,1,1.55,1.42.52,4.61-1.82,3.77-.84-.31-1.2,1-.36,1.33Z" transform="translate(-307.5 -365.35)"/><path class="form-color" d="M601.47,392a3.65,3.65,0,0,0-4.94-.39,4.09,4.09,0,0,0-.09,5.43,3.2,3.2,0,0,0,4.82-.11,4.14,4.14,0,0,0,.72-3.36c-.14-.88-1.48-.51-1.33.37a6,6,0,0,1,0,1.17,2,2,0,0,1-2.71,1.41,2.77,2.77,0,0,1-.84-3.33c.69-1.35,2.47-1.19,3.42-.21.62.64,1.6-.34,1-1Z" transform="translate(-307.5 -365.35)"/><path class="form-color" d="M598.32,388a27.27,27.27,0,0,1,2.75,8.37c.13.88,1.46.5,1.34-.37a29.23,29.23,0,0,0-2.89-8.7c-.39-.8-1.58-.1-1.2.7Z" transform="translate(-307.5 -365.35)"/><path class="form-color" d="M605.57,396.22c.48-1,.95-2,1.42-3.05a8.82,8.82,0,0,0,1-2.44.68.68,0,0,0-.34-.6,3.77,3.77,0,0,0-4.26.66,3.54,3.54,0,0,0-.52,3.8,3.75,3.75,0,0,0,6.85,0c.35-.81-.84-1.51-1.19-.7a2.38,2.38,0,0,1-4.16.58,2.27,2.27,0,0,1-.24-2.3,2.21,2.21,0,0,1,2.82-.83l-.34-.59a10.28,10.28,0,0,1-1.05,2.32c-.38.82-.77,1.65-1.16,2.47s.82,1.5,1.2.7Z" transform="translate(-307.5 -365.35)"/><path class="form-color" d="M471.64,473.82c23.94-5,47.91-10,71.73-15.59.86-.2.49-1.54-.37-1.33-23.82,5.59-47.79,10.56-71.73,15.59-.87.18-.5,1.51.37,1.33Z" transform="translate(-307.5 -365.35)"/><path class="form-color" d="M532.49,476.63l11.27-2.24c.88-.17.51-1.5-.36-1.33l-11.27,2.24c-.88.17-.51,1.51.36,1.33Z" transform="translate(-307.5 -365.35)"/><path class="form-color" d="M542.49,457.57c0,5.39.37,10.77.4,16.16a.69.69,0,0,0,1.38,0c0-5.39-.37-10.77-.4-16.16a.69.69,0,0,0-1.38,0Z" transform="translate(-307.5 -365.35)"/><path class="form-color" d="M470.56,473.15c0,4.86.19,9.71.2,14.56a.7.7,0,0,0,1.39,0c0-4.85-.19-9.7-.2-14.56a.7.7,0,0,0-1.39,0Z" transform="translate(-307.5 -365.35)"/><path class="form-color" d="M531.62,467.88V476a.69.69,0,0,0,1.38,0v-8.09a.69.69,0,0,0-1.38,0Z" transform="translate(-307.5 -365.35)"/><path class="form-color" d="M532.13,467.22c-20.06,7.33-40.58,13.16-60.86,19.83-.84.27-.48,1.61.37,1.33,20.28-6.66,40.8-12.5,60.85-19.83.83-.3.47-1.64-.36-1.33Z" transform="translate(-307.5 -365.35)"/><path class="form-color" d="M476.73,517.81c1.51-2,3.94-1.87,5.11.42a6,6,0,0,1-.63,5.65c-1.51,2.33-4.34,1.76-5.27-.81a5.88,5.88,0,0,1,.79-5.26c.47-.76-.73-1.46-1.19-.7-1.58,2.56-2,6.09.32,8.43,2.1,2.16,5,1.47,6.55-1s1.95-6.26-.38-8.42c-2.18-2-4.85-1.21-6.49,1C475,517.82,476.2,518.51,476.73,517.81Z" transform="translate(-307.5 -365.35)"/><path class="form-color" d="M478.43,525.52c-2.74-.07-4.94-.92-5.61-3.73a5.52,5.52,0,0,1,1.4-5.3c1.62-1.45,3.83-.86,5.59-.06.81.36,1.51-.84.7-1.2-2-.9-4.35-1.54-6.4-.37a6.51,6.51,0,0,0-2.87,5.49c0,4.35,3.13,6.45,7.19,6.56a.7.7,0,0,0,0-1.39Z" transform="translate(-307.5 -365.35)"/><path class="form-color" d="M516.1,509.58c1.51-2,3.94-1.86,5.11.43a6,6,0,0,1-.63,5.65c-1.52,2.32-4.35,1.75-5.27-.81a5.91,5.91,0,0,1,.79-5.27c.47-.76-.73-1.45-1.2-.7-1.57,2.57-1.95,6.1.33,8.43,2.1,2.17,5,1.48,6.54-.95s2-6.27-.38-8.42c-2.17-2-4.85-1.21-6.49.94C514.36,509.59,515.57,510.28,516.1,509.58Z" transform="translate(-307.5 -365.35)"/><path class="form-color" d="M517.79,517.3c-2.73-.07-4.93-.93-5.61-3.74a5.52,5.52,0,0,1,1.41-5.29c1.61-1.45,3.82-.86,5.59-.07.81.36,1.51-.83.7-1.19-2-.9-4.35-1.55-6.4-.37a6.5,6.5,0,0,0-2.87,5.49c0,4.35,3.12,6.45,7.18,6.55.89,0,.89-1.36,0-1.38Z" transform="translate(-307.5 -365.35)"/><path class="form-color" d="M550.81,501.25c1.52-2,3.94-1.87,5.11.43a5.93,5.93,0,0,1-.62,5.65c-1.52,2.32-4.35,1.75-5.27-.82a5.91,5.91,0,0,1,.78-5.26c.47-.76-.72-1.46-1.19-.7-1.57,2.56-2,6.09.32,8.43,2.11,2.16,5,1.47,6.55-1s2-6.26-.38-8.42c-2.17-2-4.85-1.21-6.49.95C549.08,501.26,550.28,502,550.81,501.25Z" transform="translate(-307.5 -365.35)"/><path class="form-color" d="M552.51,509c-2.74-.07-4.93-.92-5.61-3.73a5.53,5.53,0,0,1,1.41-5.3c1.61-1.44,3.82-.85,5.59-.06.8.36,1.51-.84.7-1.2-2-.9-4.36-1.54-6.41-.37a6.51,6.51,0,0,0-2.86,5.49c0,4.35,3.12,6.45,7.18,6.56a.7.7,0,0,0,0-1.39Z" transform="translate(-307.5 -365.35)"/><path class="form-color" d="M589.76,494.09c1.51-2,3.94-1.86,5.11.43a6,6,0,0,1-.63,5.65c-1.52,2.32-4.35,1.75-5.27-.81a5.91,5.91,0,0,1,.79-5.27c.47-.76-.73-1.45-1.2-.69-1.57,2.56-1.95,6.09.33,8.42,2.1,2.17,5,1.48,6.54-.95s2-6.27-.38-8.42c-2.17-2-4.85-1.21-6.49.95C588,494.1,589.23,494.79,589.76,494.09Z" transform="translate(-307.5 -365.35)"/><path class="form-color" d="M591.45,501.81c-2.73-.07-4.93-.93-5.61-3.74a5.52,5.52,0,0,1,1.41-5.29c1.61-1.45,3.82-.86,5.59-.07.81.36,1.51-.83.7-1.19-2-.9-4.35-1.55-6.4-.37a6.5,6.5,0,0,0-2.87,5.49c0,4.35,3.12,6.45,7.18,6.55.89,0,.89-1.36,0-1.38Z" transform="translate(-307.5 -365.35)"/><path class="form-color" d="M625.67,486.1c1.52-2,3.94-1.86,5.11.43a5.93,5.93,0,0,1-.62,5.65c-1.52,2.32-4.35,1.75-5.28-.81a6,6,0,0,1,.79-5.27c.47-.76-.72-1.45-1.19-.69-1.58,2.56-2,6.09.32,8.42,2.11,2.17,5,1.48,6.55-.95s1.95-6.27-.38-8.42c-2.17-2-4.85-1.21-6.49,1C623.94,486.11,625.14,486.8,625.67,486.1Z" transform="translate(-307.5 -365.35)"/><path class="form-color" d="M627.37,493.82c-2.74-.07-4.94-.93-5.61-3.74a5.52,5.52,0,0,1,1.41-5.29c1.61-1.45,3.82-.86,5.59-.07.8.36,1.51-.83.69-1.19-2-.9-4.35-1.55-6.4-.37a6.53,6.53,0,0,0-2.87,5.49c0,4.35,3.13,6.45,7.19,6.55.89,0,.89-1.36,0-1.38Z" transform="translate(-307.5 -365.35)"/></svg>