<svg xmlns="http://www.w3.org/2000/svg" xmlns:xlink="http://www.w3.org/1999/xlink" width="120" height="120" viewBox="0 0 120 120">
  <defs>
    <clipPath id="clip-path">
      <rect id="Rectangle_123" data-name="Rectangle 123" width="23.776" height="2.389" fill="none"/>
    </clipPath>
    <clipPath id="clip-path-2">
      <rect id="Rectangle_124" data-name="Rectangle 124" width="3.157" height="2.966" fill="none"/>
    </clipPath>
    <clipPath id="clip-path-3">
      <rect id="Rectangle_127" data-name="Rectangle 127" width="28.849" height="2.359" fill="none"/>
    </clipPath>
  </defs>
  <g id="engage" transform="translate(-128 -1275)">
    <path id="Path_14027" data-name="Path 14027" d="M60,0A60,60,0,1,1,0,60,60,60,0,0,1,60,0Z" transform="translate(128 1275)" fill="#ebe259" opacity="0.255"/>
    <g id="Group_14209" data-name="Group 14209" transform="translate(158.629 1288.974)">
      <path id="Path_14028" data-name="Path 14028" d="M110,285.5c.495-.272,1.259-.348,1.866-.65.306-.152.294-.8.94-.5.238.11.643.43,1.1.634a5.123,5.123,0,0,0,2.493.256,93.792,93.792,0,0,1,10.017-.772,1.159,1.159,0,0,0,.551-.09c.3-.162.371-.462.473-.753a21.116,21.116,0,0,1,1.724-3.917,8.293,8.293,0,0,1,2.563-2.9,4.333,4.333,0,0,1,3.854-.541,2.605,2.605,0,0,1,1.817,2.017c.282,2.37-2.209,3.925-3.758,5.445-1.466,1.438-2.718,2.658-4.233,3.962a1.765,1.765,0,0,1-.613.392,1.98,1.98,0,0,1-.785.039,49.058,49.058,0,0,0-9.912-.334,22.845,22.845,0,0,0-2.59.053c-.556.125-.885.6-1.4.791a4.784,4.784,0,0,1-1.688.378,3.282,3.282,0,0,1-2.845-2.2c-.2-.728.024-1.086.433-1.311" transform="translate(-100.467 -245.204)" fill="#efbfa5"/>
      <path id="Path_14029" data-name="Path 14029" d="M203.733,242.628c-1.819-.808-3.754-1.369-5.512-2.311.806-1.417,3.3-7.244,3.7-7.934,1.525-2.632,1.882-3.79,3.762-5.093,4.014-2.782,8.237-.379,7.637,3.982-.651,4.735-3.8,8.588-7.149,12.02a.6.6,0,0,1-.284.16.721.721,0,0,1-.419-.084c-.565-.26-1.161-.484-1.735-.739" transform="translate(-170.522 -204.951)" fill="#353a85"/>
      <path id="Path_14030" data-name="Path 14030" d="M211.131,574.969a16.636,16.636,0,0,1-1.945-.171c-.335-5.926.273-12.137.537-18.092l4.96.244a49.7,49.7,0,0,0-2.454,9.79c-.076.527-1,8.226-1.1,8.229" transform="translate(-179.101 -471.475)" fill="#efbfa5"/>
      <path id="Path_14031" data-name="Path 14031" d="M190.314,644.049a1.043,1.043,0,0,0-.921.329c-.158.133-.265.321-.456.416a1.606,1.606,0,0,1-.6.135c-1.193.11-3.94.065-2.476,1.9,1.329,1.668,4.86,1,6.9.551a.735.735,0,0,0,.374-.144.859.859,0,0,0,.206-.373c.233-.785.551-1.765-.5-2.094-.447-.14-.859.132-1.332-.019-.387-.124-.785-.636-1.193-.7" transform="translate(-160.429 -541.876)" fill="#292949"/>
      <path id="Path_14032" data-name="Path 14032" d="M194.181,399.561l10.114-.181q4.091-17.934,7.2-36.041a5.919,5.919,0,0,0,.024-2.816c-.554-1.717-2.551-2.7-4.463-3.026-2.972-.511-8.432.2-9.956,3.046-1.611,3.007-1.34,8.377-1.731,11.7a186.1,186.1,0,0,0-1.191,27.318" transform="translate(-167.266 -310.756)" fill="#292949"/>
      <path id="Path_14033" data-name="Path 14033" d="M297.073,574.969a16.646,16.646,0,0,0,1.945-.171c.335-5.926-.273-12.137-.537-18.092l-4.96.244a49.669,49.669,0,0,1,2.454,9.79c.076.527,1,8.226,1.1,8.229" transform="translate(-245.762 -471.475)" fill="#efbfa5"/>
      <path id="Path_14034" data-name="Path 14034" d="M308.372,644.049a1.043,1.043,0,0,1,.921.329c.158.133.265.321.456.416a1.606,1.606,0,0,0,.6.135c1.193.11,3.94.065,2.476,1.9-1.329,1.668-4.859,1-6.9.551a.734.734,0,0,1-.374-.144.857.857,0,0,1-.207-.373c-.233-.785-.551-1.765.5-2.094.447-.14.859.132,1.332-.019.388-.124.785-.636,1.193-.7" transform="translate(-254.916 -541.876)" fill="#292949"/>
      <path id="Path_14035" data-name="Path 14035" d="M269.035,399.561l-10.114-.181q-4.091-17.934-7.2-36.041a5.923,5.923,0,0,1-.024-2.816c.554-1.717,2.551-2.7,4.463-3.026,2.972-.511,8.432.2,9.956,3.046,1.611,3.007,1.34,8.377,1.731,11.7a186.145,186.145,0,0,1,1.191,27.318" transform="translate(-212.61 -310.756)" fill="#292949"/>
      <path id="Path_14036" data-name="Path 14036" d="M217.72,222.354a22.069,22.069,0,0,1,5.947,8.564c2.16,5.582,2.2,11.542,2.221,17.382q.01,2.916.02,5.832c.007,1.912-.177,2.324-2.434,2.072a41.368,41.368,0,0,1-12.32-2.973c-1.8-.814-3.488-1.843-5.379-2.484-2.75-.933-5.57-.511-8.291-1.117a55.635,55.635,0,0,0,2.633-9.477c.624-3.488,1.192-7.294,2.107-10.735a27,27,0,0,1,2.608-5.894,10.722,10.722,0,0,1,2.622-3.505c3.57-2.779,7.574-.024,10.266,2.336" transform="translate(-169.94 -199.108)" fill="#353a85"/>
      <path id="Path_14037" data-name="Path 14037" d="M245.551,157.314a21.283,21.283,0,0,0,2.026,2.824,6.02,6.02,0,0,1,1.077,2.8,1.527,1.527,0,0,0,1.426,1.5c1.889.247,1.349-1.19,1.778-2.236a19.049,19.049,0,0,1,2.267-3.206c2.112-3.083,1.509-9.176-2.881-10.476-4.8-1.422-7.242,5.679-5.693,8.8" transform="translate(-207.523 -142.257)" fill="#efbfa5"/>
      <path id="Path_14038" data-name="Path 14038" d="M272.141,159.444a2.554,2.554,0,0,1,1.549.4c.4.337.36,1.072-.173,1.152-.484.072-1.11-.393-1.405-.053-.173.2-.021.488.11.72a3.934,3.934,0,0,1,.419,2.869c.2.17.509-.006.684-.183a9.141,9.141,0,0,0,1.99-3.009,1.939,1.939,0,0,0,.731.652,1.972,1.972,0,0,1,.045-1.3c.41-1.559.689-3.386-.493-4.661a4.531,4.531,0,0,0-2.562-1.239,13.945,13.945,0,0,0-2.929-.084c-.417.017-.931.1-1.031.456a4.574,4.574,0,0,1,2.32,1.794c.141.245.691,2.483.747,2.485" transform="translate(-226.461 -147.37)" fill="#292949"/>
      <path id="Path_14039" data-name="Path 14039" d="M254.125,141.6l.1.067a4.211,4.211,0,0,0,1.306.773c.723.186,1.5-.135,2.213.092.8.254,1.32,1.13,1.9,1.65a8.613,8.613,0,0,0,3.4,1.832,9.164,9.164,0,0,0,2,.328,3.821,3.821,0,0,0,1.016,0c.4-.1.387-.268-.04-.393-1.34-.4-1.76-2.129-1.659-3.278a5.415,5.415,0,0,0,.044-2.7,3.361,3.361,0,0,0-1.5-1.343,7.019,7.019,0,0,0-2.115-.491c-.778-.2-1.412-.768-2.206-.912a7.229,7.229,0,0,0-2.515.34,5.641,5.641,0,0,1-2.1-.024,9.082,9.082,0,0,0-1.853-.35,3.094,3.094,0,0,0-2.335,1.242,5.358,5.358,0,0,0-1,3.975c-.042-.2.695-.932.847-1.089a2.021,2.021,0,0,1,1.194-.7,5.438,5.438,0,0,1,3.3.979" transform="translate(-210.38 -133.268)" fill="#292949"/>
      <path id="Path_14040" data-name="Path 14040" d="M99.876,363.244s1.032,4.515.343,6.558l1.876.013-.605-7.258Z" transform="translate(-92.877 -314.959)" fill="#babcbe"/>
      <path id="Path_14041" data-name="Path 14041" d="M103.841,395.926q-.788.115-1.584.166c-.085.005-.069.134.016.129q.8-.051,1.584-.166a.065.065,0,0,0-.016-.129" transform="translate(-94.712 -341.86)" fill="#babcbe"/>
      <path id="Path_14042" data-name="Path 14042" d="M104.079,392.405l-1.414.178a.065.065,0,0,0,.016.129l1.413-.178a.065.065,0,0,0-.016-.129" transform="translate(-95.035 -339.021)" fill="#babcbe"/>
      <path id="Path_14043" data-name="Path 14043" d="M103.967,389.367a3.915,3.915,0,0,1-1.352.145c-.085,0-.069.129.016.129a6.991,6.991,0,0,0,1.352-.145c.083-.017.068-.146-.016-.129" transform="translate(-94.995 -336.571)" fill="#babcbe"/>
      <path id="Path_14044" data-name="Path 14044" d="M104.031,385.087a11.364,11.364,0,0,1-1.378.218.065.065,0,0,0,.016.129,11.336,11.336,0,0,0,1.378-.218c.082-.018.067-.147-.016-.129" transform="translate(-95.025 -333.12)" fill="#babcbe"/>
      <path id="Path_14045" data-name="Path 14045" d="M103.535,381.3q-.673.093-1.351.149a.065.065,0,0,0,.016.128q.678-.056,1.351-.149a.065.065,0,0,0-.016-.129" transform="translate(-94.655 -330.065)" fill="#babcbe"/>
      <path id="Path_14046" data-name="Path 14046" d="M103.087,377.513q-.653.113-1.312.179a.065.065,0,0,0,.016.129q.66-.066,1.313-.179c.083-.015.068-.143-.016-.128" transform="translate(-94.332 -327.015)" fill="#babcbe"/>
      <path id="Path_14047" data-name="Path 14047" d="M102.489,373.2q-.7.138-1.407.222a.06.06,0,0,0-.033.014c0,.005,0,.01,0,.015.009.031.017.063.024.1a.055.055,0,0,0,.022,0q.709-.084,1.408-.222c.083-.016.068-.145-.016-.129" transform="translate(-93.802 -323.535)" fill="#babcbe"/>
      <path id="Path_14048" data-name="Path 14048" d="M102.343,368.9l-1.379.185a.065.065,0,0,0,.016.128l1.379-.184a.065.065,0,0,0-.016-.129" transform="translate(-93.692 -320.069)" fill="#babcbe"/>
      <path id="Path_14049" data-name="Path 14049" d="M129.176,413.626l-33.523,2.587a.077.077,0,0,1-.084-.067l-.475-5.156a.074.074,0,0,1,.071-.079l33.523-2.587a.077.077,0,0,1,.084.067l.475,5.156a.074.074,0,0,1-.071.079" transform="translate(-89.1 -351.855)" fill="#d67086"/>
      <path id="Path_14050" data-name="Path 14050" d="M110.756,424.622l-3.524.272-.488-5.3,3.524-.272Z" transform="translate(-98.299 -360.719)" fill="#292949"/>
      <path id="Path_14051" data-name="Path 14051" d="M128.619,423.987l-.783.06-.489-5.3.783-.06Z" transform="translate(-114.566 -360.207)" fill="#292949"/>
      <path id="Path_14052" data-name="Path 14052" d="M138.862,427.578a.957.957,0,0,1-.913,1.016.992.992,0,0,1-1.086-.862.957.957,0,0,1,.913-1.016.992.992,0,0,1,1.086.862" transform="translate(-122.076 -366.679)" fill="#292949"/>
      <path id="Path_14053" data-name="Path 14053" d="M128.545,390.727l-33.523,2.587a.077.077,0,0,1-.084-.067l-.381-4.13a.074.074,0,0,1,.071-.079l33.524-2.588a.077.077,0,0,1,.084.067l.38,4.13a.074.074,0,0,1-.071.079" transform="translate(-88.677 -334.221)" fill="#5d66d3"/>
      <path id="Path_14054" data-name="Path 14054" d="M115.4,404.376l.171,1.854.984-.908Z" transform="translate(-105.136 -348.672)" fill="#eed5d5"/>
      <path id="Path_14055" data-name="Path 14055" d="M121.885,404.761l.138,1.5.794-.733Z" transform="translate(-110.254 -348.982)" fill="#eed5d5"/>
      <path id="Path_14056" data-name="Path 14056" d="M103.714,403.323l-.152.012-.394-4.276.153-.012Z" transform="translate(-95.476 -344.376)" fill="#eed5d5"/>
      <path id="Path_14057" data-name="Path 14057" d="M107.115,403.038l-.153.012-.394-4.276.153-.012Z" transform="translate(-98.161 -344.146)" fill="#eed5d5"/>
      <path id="Path_14058" data-name="Path 14058" d="M125.163,126.14l-2.387.814.032-.528a14.459,14.459,0,0,0-.7-5.037l.1-.1,2.189-1.74Z" transform="translate(-110.426 -119.058)" fill="#eed5d5"/>
      <path id="Path_14059" data-name="Path 14059" d="M141.109,149.144l-13.848.563-2.24,1.08,15-.579Z" transform="translate(-112.728 -142.913)" fill="#9eb79c"/>
      <path id="Path_14060" data-name="Path 14060" d="M124.7,152.355a5.809,5.809,0,0,0,1.165-.54l1.071-.546c.056-.029.1.143.044.172l-1.157.591a5.457,5.457,0,0,1-1.1.5c-.06.015-.08-.166-.02-.18" transform="translate(-112.445 -144.623)" fill="#b0c0ba"/>
      <path id="Path_14061" data-name="Path 14061" d="M123.8,119.679a13.566,13.566,0,0,0-2.321,1.774c-.077.073-.177-.16-.1-.234a13.781,13.781,0,0,1,2.354-1.8c.084-.05.15.212.066.262" transform="translate(-109.833 -118.942)" fill="#b0c0ba"/>
      <path id="Path_14062" data-name="Path 14062" d="M146.385,117l-13.953.5.217,1.414c.175,1.144.3,2.293.377,3.436l.087,1.444,13.848-.563,0-.085a20.883,20.883,0,0,0-.581-6.146" transform="translate(-118.58 -116.997)" fill="#8cabef"/>
      <path id="Path_14063" data-name="Path 14063" d="M141.3,119.43c-.041-.18-.345-.147-.3.034a19.815,19.815,0,0,1,.449,5.753c-.012.184.29.228.3.043a20.09,20.09,0,0,0-.449-5.83" transform="translate(-125.336 -118.862)" fill="#5d66d3"/>
      <path id="Path_14064" data-name="Path 14064" d="M189.669,117.913c-.043-.179-.346-.145-.3.036a19.836,19.836,0,0,1,.5,5.749c-.011.184.292.225.3.041a20.115,20.115,0,0,0-.5-5.826" transform="translate(-163.527 -117.64)" fill="#5d66d3"/>
      <path id="Path_14065" data-name="Path 14065" d="M81.031,160.586l-5.355,1.257.114-.714a11.941,11.941,0,0,0-1.155-6.737l.226-.136,4.992-2.492Z" transform="translate(-72.948 -145.026)" fill="#efbfa5"/>
      <path id="Path_14066" data-name="Path 14066" d="M114.756,186.6,84.025,188.3,78.973,189.9l33.28-1.793Z" transform="translate(-76.374 -173.112)" fill="#292949"/>
      <path id="Path_14067" data-name="Path 14067" d="M78.286,195.916a19.005,19.005,0,0,0,2.625-.806l2.417-.808c.128-.042.211.186.083.229L80.8,195.4a17.936,17.936,0,0,1-2.485.754c-.134.024-.163-.218-.03-.242" transform="translate(-75.763 -179.314)" fill="#353a85"/>
      <path id="Path_14068" data-name="Path 14068" d="M78.515,151.946a36.9,36.9,0,0,0-5.286,2.547c-.177.1-.38-.2-.2-.308a37.4,37.4,0,0,1,5.361-2.587c.19-.073.315.275.126.349" transform="translate(-71.626 -144.882)" fill="#353a85"/>
      <path id="Path_14069" data-name="Path 14069" d="M129.18,143.5l-30.959,1.615.366,1.891a32.771,32.771,0,0,1,.558,4.6l.076,1.939,30.732-1.693.018-.116A17.069,17.069,0,0,0,129.18,143.5Z" transform="translate(-91.57 -138.362)" fill="#3b3387"/>
      <path id="Path_14070" data-name="Path 14070" d="M134.415,361.06l-28.368,2.19-.578-6.273,28.368-2.19.035.084a10.06,10.06,0,0,1,.543,6.19" transform="translate(-97.293 -308.694)" fill="#dddae8"/>
      <path id="Path_14093" data-name="Path 14093" d="M0,0,3.975.026l.045,6.3L.045,6.3Z" transform="translate(11.081 48.057) rotate(-4.792)" fill="#353a85"/>
      <path id="Path_14071" data-name="Path 14071" d="M83.044,330.515l-5.329-.307.242.539a7.648,7.648,0,0,1,.179,5.326l.237.078,5.182,1.339Z" transform="translate(-75.381 -288.88)" fill="#efbfa5"/>
      <path id="Path_14072" data-name="Path 14072" d="M113.348,316.3l-31.083,2.631-5.1-.617,33.307-2.906Z" transform="translate(-74.945 -276.948)" fill="#292949"/>
      <path id="Path_14073" data-name="Path 14073" d="M76.589,330.4a22.662,22.662,0,0,1,2.636.3l2.456.328c.13.017.167-.171.037-.188l-2.653-.354a21.367,21.367,0,0,0-2.494-.274c-.131,0-.113.189.017.191" transform="translate(-74.407 -288.884)" fill="#353a85"/>
      <path id="Path_14074" data-name="Path 14074" d="M83.77,360.866A43.645,43.645,0,0,1,78.3,359.52c-.185-.058-.318.2-.131.259a44.2,44.2,0,0,0,5.545,1.37.144.144,0,1,0,.055-.283" transform="translate(-75.669 -312.504)" fill="#353a85"/>
      <path id="Path_14075" data-name="Path 14075" d="M133.116,326.882l-31.1,2.4,0-1.5a20.944,20.944,0,0,0-.322-3.631l-.289-1.518L132.482,320l.039.092a11.03,11.03,0,0,1,.595,6.787" transform="translate(-94.079 -280.654)" fill="#474ebb"/>
      <path id="Path_14076" data-name="Path 14076" d="M121.523,291.9,92.046,294.18a.077.077,0,0,1-.084-.067l-.586-6.355a.074.074,0,0,1,.071-.079l29.477-2.275a.077.077,0,0,1,.084.067l.585,6.355a.074.074,0,0,1-.071.079" transform="translate(-86.166 -252.761)" fill="#8cabef"/>
      <path id="Path_14077" data-name="Path 14077" d="M110.5,240.284,74.06,243.1a.077.077,0,0,1-.084-.067l-.424-4.6a.074.074,0,0,1,.071-.079l36.442-2.813a.077.077,0,0,1,.085.067l.424,4.6a.074.074,0,0,1-.071.079" transform="translate(-72.094 -212.56)" fill="#5d66d3"/>
      <path id="Path_14078" data-name="Path 14078" d="M128.907,199.335l-23.229,1.793-.863-9.375,23.229-1.793.132.515a26.222,26.222,0,0,1,.767,8.331Z" transform="translate(-96.776 -175.817)" fill="#d67086"/>
      <path id="Path_14079" data-name="Path 14079" d="M122.535,205.92l-4.609.356-.852-9.25,4.609-.356Z" transform="translate(-106.454 -181.226)" fill="#eed5d5"/>
      <path id="Path_14094" data-name="Path 14094" d="M0,0,2.6.017l.066,9.289-2.6-.017Z" transform="translate(11.613 15.722) rotate(-4.792)" fill="#d67086"/>
      <g id="Group_14202" data-name="Group 14202" transform="translate(8.043 14.195)" opacity="0.13">
        <g id="Group_14201" data-name="Group 14201" transform="translate(0 0)">
          <g id="Group_14200" data-name="Group 14200" clip-path="url(#clip-path)">
            <path id="Path_14080" data-name="Path 14080" d="M104.837,192.022l23.229-1.793.546,2.389-23.729-.088Z" transform="translate(-104.837 -190.229)" fill="#000100"/>
          </g>
        </g>
      </g>
      <g id="Group_14205" data-name="Group 14205" transform="translate(16.944 1.807)" opacity="0.64">
        <g id="Group_14204" data-name="Group 14204" transform="translate(0)">
          <g id="Group_14203" data-name="Group 14203" clip-path="url(#clip-path-2)">
            <path id="Path_14081" data-name="Path 14081" d="M150.276,127.682a1.506,1.506,0,0,1-1.436,1.6,1.561,1.561,0,0,1-1.709-1.357,1.506,1.506,0,0,1,1.437-1.6,1.561,1.561,0,0,1,1.709,1.357" transform="translate(-147.125 -126.32)" fill="#5d66d3"/>
          </g>
        </g>
      </g>
      <path id="Path_14082" data-name="Path 14082" d="M86.719,256.96a5.194,5.194,0,0,0-1.169-.858.145.145,0,1,0-.131.259,4.891,4.891,0,0,1,1,.723,8.858,8.858,0,0,1-.872.969c-.138.132.1.317.234.186a8.862,8.862,0,0,0,.956-1.077.143.143,0,0,0-.019-.2" transform="translate(-81.4 -229.122)" fill="#dddae8"/>
      <path id="Path_14083" data-name="Path 14083" d="M95.776,256.433a5.764,5.764,0,0,0-.942-.727c-.154-.116-.351.1-.2.219a7.477,7.477,0,0,1,.826.606,4.266,4.266,0,0,1-.4.394l-.451.461c-.133.136.1.322.234.186l.541-.553a1.978,1.978,0,0,0,.4-.442.137.137,0,0,0-.013-.145" transform="translate(-88.689 -228.793)" fill="#dddae8"/>
      <path id="Path_14084" data-name="Path 14084" d="M103.392,253.375c-.152-.119-.349.1-.2.219.092.071.281.327.078.381s-.082.319.107.27a.385.385,0,0,0,.284-.4.661.661,0,0,0-.272-.469" transform="translate(-95.455 -226.913)" fill="#dddae8"/>
      <path id="Path_14085" data-name="Path 14085" d="M108.89,256.225a.161.161,0,0,0-.172-.046.658.658,0,0,0-.755.2.541.541,0,0,0,.1.722.617.617,0,0,0,.808-.022.6.6,0,0,0,.019-.85m-.222.635a.3.3,0,0,1-.408.017c-.236-.228.05-.553.341-.435a.162.162,0,0,0,.086.011.313.313,0,0,1-.019.407" transform="translate(-99.186 -229.165)" fill="#dddae8"/>
      <path id="Path_14095" data-name="Path 14095" d="M0,0,.352,0,.4,6.556l-.352,0Z" transform="translate(30.491 32.96) rotate(-4.8)" fill="#dddae8"/>
      <path id="Path_14096" data-name="Path 14096" d="M0,0,.352,0,.4,6.556l-.352,0Z" transform="translate(31.914 32.85) rotate(-4.803)" fill="#dddae8"/>
      <g id="Group_14208" data-name="Group 14208" transform="translate(8.175 46.41)" opacity="0.11">
        <g id="Group_14207" data-name="Group 14207" transform="translate(0)">
          <g id="Group_14206" data-name="Group 14206" clip-path="url(#clip-path-3)">
            <path id="Path_14086" data-name="Path 14086" d="M105.462,358.63l28.5-2.2s.242.626.348,1.049l-28.8,1.31Z" transform="translate(-105.462 -356.43)" fill="#000100"/>
          </g>
        </g>
      </g>
      <path id="Path_14087" data-name="Path 14087" d="M103.576,265.085,67.133,267.9a.077.077,0,0,1-.084-.067l-.424-4.6a.074.074,0,0,1,.071-.079l36.442-2.813a.078.078,0,0,1,.085.067l.424,4.6a.074.074,0,0,1-.071.079" transform="translate(-66.625 -232.554)" fill="#292949"/>
      <path id="Path_14097" data-name="Path 14097" d="M0,0,.553,0l.014,1.95-.553,0Z" transform="matrix(0.997, -0.083, 0.083, 0.997, 4.351, 31.679)" fill="#dddae8"/>
      <path id="Path_14098" data-name="Path 14098" d="M0,0,.553,0l.014,1.95-.553,0Z" transform="translate(6.082 31.546) rotate(-4.783)" fill="#dddae8"/>
      <path id="Path_14088" data-name="Path 14088" d="M111.956,257.648l-36.544,2.868a.164.164,0,0,1-.182-.179l36.593-3.139Z" transform="translate(-73.417 -230.022)" fill="#eed5d5"/>
      <path id="Path_14089" data-name="Path 14089" d="M111.233,256.647l-36.544,2.868a.164.164,0,0,1-.182-.179L111.1,256.2Z" transform="translate(-72.846 -229.215)" fill="#dddae8"/>
      <path id="Path_14090" data-name="Path 14090" d="M97.256,200.312s1.637,5.86.571,8.417l1.883.072-.859-9.322Z" transform="translate(-90.809 -183.491)" fill="#babcbe"/>
      <path id="Path_14091" data-name="Path 14091" d="M229.591,299.332a.623.623,0,0,1,.084-.164c.353-.443.825-.48,1.3-.816.21-.15.15-.776.674-.608.193.062.644.275,1.054.411a4.238,4.238,0,0,0,2.18-.069,21.3,21.3,0,0,0,2.782-.9c.913-.388,1.8-.821,2.675-1.286a10.026,10.026,0,0,0,2.423-1.422c.927-1-.147-3.429-.269-4.675-.127-1.3,0-5.123,1.9-5.231,3.118-.177,3.167,2.551,3.306,4.748a25.9,25.9,0,0,1-.053,4.137c-.187,1.917-1.536,3.014-3.319,3.922a31.685,31.685,0,0,1-5.9,2.477,24.878,24.878,0,0,1-3.032.515c-1.018.151-.888.56-1.742.9a8.8,8.8,0,0,1-1.432.576,3.156,3.156,0,0,1-2.336-.841.966.966,0,0,1-.379-.35,1.235,1.235,0,0,1-.044-.83,2.413,2.413,0,0,1,.13-.492" transform="translate(-195.147 -252.08)" fill="#efbfa5"/>
      <path id="Path_14092" data-name="Path 14092" d="M285.729,250.645l-5.289.944c.113-.02-2.04-7.279-2.152-7.715a11.069,11.069,0,0,1-.491-5.069c.782-3.581,2.656-4.462,5.018-.7,2.229,3.551,5.723,7.8,5.031,11.845a.492.492,0,0,1-.093.249.6.6,0,0,1-.354.148Z" transform="translate(-233.239 -212.667)" fill="#353a85"/>
    </g>
  </g>
</svg>
