<svg xmlns="http://www.w3.org/2000/svg" width="120.149" height="17.584" viewBox="0 0 120.149 17.584">
  <g id="logo" transform="translate(-50 -21)">
    <g id="pushstart_logo" transform="translate(50 21)">
      <ellipse id="Ellipse_1" data-name="Ellipse 1" cx="8.792" cy="8.792" rx="8.792" ry="8.792" transform="translate(0 0)" fill="#348ec2"/>
      <ellipse id="Ellipse_2" data-name="Ellipse 2" cx="1.426" cy="1.426" rx="1.426" ry="1.426" transform="translate(7.366 7.366)" fill="#ebe259"/>
      <path id="Path_1" data-name="Path 1" d="M301.9,174.16l-.073-.165a3.812,3.812,0,0,0-1.157-7.275c-.129-.013-.26-.02-.391-.02v-.18c.136,0,.273.007.408.02a3.992,3.992,0,0,1,1.213,7.62Z" transform="translate(-291.489 -161.719)" fill="#fff"/>
      <path id="Path_2" data-name="Path 2" d="M170.014,207.991a3.993,3.993,0,0,1-1.143-6.621l.122.133a3.812,3.812,0,0,0,1.091,6.321Z" transform="translate(-162.775 -195.521)" fill="#fff"/>
      <path id="Path_3" data-name="Path 3" d="M128.332,132.641A5.331,5.331,0,0,1,127.886,122c.147-.012.3-.018.445-.018v.18c-.143,0-.288.006-.43.018a5.15,5.15,0,1,0,5.566,5.522l.18.015A5.331,5.331,0,0,1,128.332,132.641Z" transform="translate(-119.539 -118.518)" fill="#fff"/>
      <path id="Path_4" data-name="Path 4" d="M403.738,452.69l-.088-.158a5.891,5.891,0,0,0,1.22-.883l.14.113A5.885,5.885,0,0,1,403.738,452.69Z" transform="translate(-391.75 -438.276)" fill="#fff"/>
      <path id="Path_5" data-name="Path 5" d="M128.665,420.944a6.472,6.472,0,0,1-5.322-2.79l.148-.1a6.292,6.292,0,0,0,5.172,2.713,6.36,6.36,0,0,0,1.095-.095l.03.178A6.537,6.537,0,0,1,128.665,420.944Z" transform="translate(-119.872 -405.686)" fill="#fff"/>
      <path id="Path_6" data-name="Path 6" d="M483.057,285.2l-.157-.088a6.292,6.292,0,0,0,.8-3.063c0-.172-.007-.346-.021-.517l.18-.015c.014.176.022.355.022.532a6.468,6.468,0,0,1-.819,3.151Z" transform="translate(-468.617 -273.261)" fill="#fff"/>
      <path id="Path_7" data-name="Path 7" d="M85.45,92.188a6.467,6.467,0,0,1,12.331-3.8l-.168.065a6.287,6.287,0,0,0-11.987,3.7Z" transform="translate(-82.954 -81.917)" fill="#fff"/>
      <path id="Path_8" data-name="Path 8" d="M307.646,47.706a7.609,7.609,0,0,0-2.5-4.082,7.492,7.492,0,0,0-4.507-1.774c-.124-.006-.249-.009-.373-.009v-.18c.127,0,.256,0,.382.009a7.668,7.668,0,0,1,4.616,1.816,7.792,7.792,0,0,1,2.554,4.18Z" transform="translate(-291.479 -40.614)" fill="#fff"/>
      <path id="Path_9" data-name="Path 9" d="M48.486,69.437A7.75,7.75,0,0,1,48,54.58l.057.171a7.569,7.569,0,0,0,.472,14.511Z" transform="translate(-41.642 -53.145)" fill="#fff"/>
      <path id="Path_10" data-name="Path 10" d="M300.32,360.275v-.18a7.569,7.569,0,0,0,7.385-5.915l.176.039A7.75,7.75,0,0,1,300.32,360.275Z" transform="translate(-291.528 -343.736)" fill="#fff"/>
      <ellipse id="Ellipse_3" data-name="Ellipse 3" cx="0.442" cy="0.442" rx="0.442" ry="0.442" transform="translate(14.676 7.894)" fill="#fff"/>
      <ellipse id="Ellipse_4" data-name="Ellipse 4" cx="0.442" cy="0.442" rx="0.442" ry="0.442" transform="translate(14.315 6.209)" fill="#fff"/>
      <ellipse id="Ellipse_5" data-name="Ellipse 5" cx="0.442" cy="0.442" rx="0.442" ry="0.442" transform="translate(15.82 6.78)" fill="#fff"/>
      <ellipse id="Ellipse_6" data-name="Ellipse 6" cx="0.442" cy="0.442" rx="0.442" ry="0.442" transform="translate(15.82 9.85)" fill="#fff"/>
      <ellipse id="Ellipse_7" data-name="Ellipse 7" cx="0.442" cy="0.442" rx="0.442" ry="0.442" transform="translate(9.024 14.658)" fill="#fff"/>
      <ellipse id="Ellipse_8" data-name="Ellipse 8" cx="0.442" cy="0.442" rx="0.442" ry="0.442" transform="translate(8.422 15.983)" fill="#fff"/>
      <ellipse id="Ellipse_9" data-name="Ellipse 9" cx="0.442" cy="0.442" rx="0.442" ry="0.442" transform="translate(6.587 15.772)" fill="#fff"/>
      <ellipse id="Ellipse_10" data-name="Ellipse 10" cx="0.442" cy="0.442" rx="0.442" ry="0.442" transform="translate(2.228 9.969)" fill="#fff"/>
      <ellipse id="Ellipse_11" data-name="Ellipse 11" cx="0.442" cy="0.442" rx="0.442" ry="0.442" transform="translate(3.101 11.925)" fill="#fff"/>
      <ellipse id="Ellipse_12" data-name="Ellipse 12" cx="0.442" cy="0.442" rx="0.442" ry="0.442" transform="translate(6.863 11.955)" fill="#fff"/>
      <ellipse id="Ellipse_13" data-name="Ellipse 13" cx="0.442" cy="0.442" rx="0.442" ry="0.442" transform="translate(9.722 11.955)" fill="#fff"/>
      <ellipse id="Ellipse_14" data-name="Ellipse 14" cx="0.442" cy="0.442" rx="0.442" ry="0.442" transform="translate(11.226 13.971)" fill="#fff"/>
      <ellipse id="Ellipse_15" data-name="Ellipse 15" cx="0.442" cy="0.442" rx="0.442" ry="0.442" transform="translate(13.002 12.737)" fill="#fff"/>
      <ellipse id="Ellipse_16" data-name="Ellipse 16" cx="0.442" cy="0.442" rx="0.442" ry="0.442" transform="translate(13.874 11.534)" fill="#fff"/>
      <ellipse id="Ellipse_17" data-name="Ellipse 17" cx="0.442" cy="0.442" rx="0.442" ry="0.442" transform="translate(13.543 8.825)" fill="#fff"/>
      <ellipse id="Ellipse_18" data-name="Ellipse 18" cx="0.442" cy="0.442" rx="0.442" ry="0.442" transform="translate(8.397 4.462)" fill="#fff"/>
      <ellipse id="Ellipse_19" data-name="Ellipse 19" cx="0.442" cy="0.442" rx="0.442" ry="0.442" transform="translate(8.397 3.137)" fill="#fff"/>
      <ellipse id="Ellipse_20" data-name="Ellipse 20" cx="0.442" cy="0.442" rx="0.442" ry="0.442" transform="translate(8.397 0.7)" fill="#fff"/>
      <ellipse id="Ellipse_21" data-name="Ellipse 21" cx="0.442" cy="0.442" rx="0.442" ry="0.442" transform="translate(5.99 1.091)" fill="#fff"/>
      <ellipse id="Ellipse_22" data-name="Ellipse 22" cx="0.442" cy="0.442" rx="0.442" ry="0.442" transform="translate(5.9 5.364)" fill="#fff"/>
    </g>
    <path id="Path_15" data-name="Path 15" d="M5.44-22.894v4.211h-2.9v-12h4.7a4.567,4.567,0,0,1,3.26,1.061,3.753,3.753,0,0,1,1.121,2.861,3.941,3.941,0,0,1-.5,1.995A3.473,3.473,0,0,1,9.634-23.4a5.233,5.233,0,0,1-2.394.5ZM6.917-25.22q1.749,0,1.749-1.545,0-1.579-1.749-1.579H5.44v3.124Zm8.947-5.467v6.927a2.729,2.729,0,0,0,.535,1.817,1.927,1.927,0,0,0,1.553.628,1.927,1.927,0,0,0,1.553-.628,2.729,2.729,0,0,0,.535-1.817v-6.927h2.9v6.927a5.7,5.7,0,0,1-.662,2.861,4.3,4.3,0,0,1-1.808,1.749,5.607,5.607,0,0,1-2.589.586,5.416,5.416,0,0,1-2.547-.577,4.1,4.1,0,0,1-1.732-1.749,6.007,6.007,0,0,1-.628-2.869v-6.927ZM33.5-22.062a3.309,3.309,0,0,1-.484,1.749,3.413,3.413,0,0,1-1.426,1.273,5.025,5.025,0,0,1-2.284.475,5.378,5.378,0,0,1-3.328-.985,3.568,3.568,0,0,1-1.426-2.75h3.09a1.631,1.631,0,0,0,.484,1.07,1.488,1.488,0,0,0,1.061.39,1.232,1.232,0,0,0,.883-.306,1.07,1.07,0,0,0,.323-.815,1.052,1.052,0,0,0-.3-.764,2.329,2.329,0,0,0-.739-.5q-.441-.2-1.222-.467a15.008,15.008,0,0,1-1.859-.756,3.424,3.424,0,0,1-1.239-1.087,3.144,3.144,0,0,1-.518-1.876,3.159,3.159,0,0,1,.543-1.851,3.454,3.454,0,0,1,1.5-1.2,5.48,5.48,0,0,1,2.2-.416,4.929,4.929,0,0,1,3.183.951,3.628,3.628,0,0,1,1.333,2.615H30.143a1.611,1.611,0,0,0-.433-.942,1.273,1.273,0,0,0-.942-.348,1.214,1.214,0,0,0-.823.272,1,1,0,0,0-.314.8,1.013,1.013,0,0,0,.28.722,2.135,2.135,0,0,0,.7.484q.424.187,1.222.475a13.437,13.437,0,0,1,1.885.772,3.605,3.605,0,0,1,1.256,1.112A3.177,3.177,0,0,1,33.5-22.062Zm11.986-8.625v12h-2.92v-5.009h-4.55v5.009h-2.9v-12h2.9v4.652h4.55v-4.652ZM56.12-22.062a3.309,3.309,0,0,1-.484,1.749A3.413,3.413,0,0,1,54.21-19.04a5.025,5.025,0,0,1-2.284.475A5.378,5.378,0,0,1,48.6-19.55a3.568,3.568,0,0,1-1.426-2.75h3.09a1.631,1.631,0,0,0,.484,1.07,1.489,1.489,0,0,0,1.061.39,1.232,1.232,0,0,0,.883-.306,1.07,1.07,0,0,0,.323-.815,1.052,1.052,0,0,0-.3-.764,2.33,2.33,0,0,0-.739-.5q-.441-.2-1.222-.467a15.008,15.008,0,0,1-1.859-.756,3.424,3.424,0,0,1-1.239-1.087,3.144,3.144,0,0,1-.518-1.876,3.159,3.159,0,0,1,.543-1.851,3.453,3.453,0,0,1,1.5-1.2,5.48,5.48,0,0,1,2.2-.416,4.929,4.929,0,0,1,3.183.951A3.628,3.628,0,0,1,55.9-27.309H52.758a1.611,1.611,0,0,0-.433-.942,1.273,1.273,0,0,0-.942-.348,1.214,1.214,0,0,0-.823.272,1,1,0,0,0-.314.8,1.013,1.013,0,0,0,.28.722,2.135,2.135,0,0,0,.7.484q.424.187,1.222.475a13.437,13.437,0,0,1,1.885.772,3.605,3.605,0,0,1,1.256,1.112A3.177,3.177,0,0,1,56.12-22.062Zm10.238-8.625v2.309H63.1v9.694h-2.92v-9.694H56.951v-2.309Zm8.659,9.813h-4.5l-.747,2.19H66.714l4.4-11.919h3.345l4.4,11.919h-3.09Zm-.747-2.207L72.775-27.5l-1.511,4.414Zm11.868,4.4-2.6-4.533h-.662v4.533h-2.9v-12h4.958a5.352,5.352,0,0,1,2.411.492,3.4,3.4,0,0,1,1.477,1.35,3.867,3.867,0,0,1,.492,1.961,3.486,3.486,0,0,1-.722,2.224,3.688,3.688,0,0,1-2.1,1.256l2.852,4.72Zm-3.26-6.52h1.8a1.813,1.813,0,0,0,1.273-.382,1.474,1.474,0,0,0,.407-1.129,1.5,1.5,0,0,0-.416-1.121,1.743,1.743,0,0,0-1.265-.407h-1.8ZM99.4-30.687v2.309h-3.26v9.694h-2.92v-9.694H89.991v-2.309Z" transform="translate(70.753 54.523)" fill="#348ec2"/>
  </g>
</svg>
